<mxfile host="app.diagrams.net" modified="2024-07-23T08:18:56.456Z" agent="Mozilla/5.0 (Windows NT 10.0; Win64; x64) AppleWebKit/537.36 (KHTML, like Gecko) Chrome/128.0.0.0 Safari/537.36 Edg/128.0.0.0" etag="y_1wPznzKCssWn9u7S-A" version="24.6.4" type="github">
  <diagram name="第 1 页" id="SQfO1PFKx7lrPR4uGWZ5">
    <mxGraphModel dx="3507" dy="1290" grid="1" gridSize="10" guides="1" tooltips="1" connect="1" arrows="1" fold="1" page="1" pageScale="1" pageWidth="827" pageHeight="1169" math="0" shadow="0">
      <root>
        <mxCell id="0" />
        <mxCell id="1" parent="0" />
        <UserObject label="" plantUmlData="{&quot;data&quot;:&quot;@startuml\n\nactor 会员用户\n\nrectangle \&quot;会员事件处理系统\&quot; {\n    usecase 注册新用户\n    usecase 完善个人资料\n    usecase 每日签到\n    usecase 连续签到\n    usecase 每日首次登录\n    usecase 浏览商品\n    usecase 评价奖励\n    usecase 积分兑换\n    usecase 问卷调查\n    usecase 参与活动\n    usecase 消费\n    usecase 分享\n    usecase 添加成长值或积分\n    usecase 会员升级\n    usecase 积分过期\n}\n\n会员用户 -- 注册新用户\n会员用户 -- 完善个人资料\n会员用户 -- 每日签到\n会员用户 -- 连续签到\n会员用户 -- 每日首次登录\n会员用户 -- 浏览商品\n会员用户 -- 评价奖励\n会员用户 -- 积分兑换\n会员用户 -- 问卷调查\n会员用户 -- 参与活动\n会员用户 -- 消费\n会员用户 -- 分享\n会员用户 -- 添加成长值或积分\n会员用户 -- 会员升级\n会员用户 -- 积分过期\n\n@enduml\n&quot;,&quot;format&quot;:&quot;svg&quot;}" id="8JMTBNHWokN22WQnh1h2-3">
          <mxCell style="shape=image;noLabel=1;verticalAlign=top;aspect=fixed;imageAspect=0;image=data:image/svg+xml,PD94bWwgdmVyc2lvbj0iMS4wIiBlbmNvZGluZz0idXMtYXNjaWkiIHN0YW5kYWxvbmU9Im5vIj8+PHN2ZyB4bWxucz0iaHR0cDovL3d3dy53My5vcmcvMjAwMC9zdmciIHhtbG5zOnhsaW5rPSJodHRwOi8vd3d3LnczLm9yZy8xOTk5L3hsaW5rIiBjb250ZW50U3R5bGVUeXBlPSJ0ZXh0L2NzcyIgaGVpZ2h0PSIxOTdweCIgcHJlc2VydmVBc3BlY3RSYXRpbz0ibm9uZSIgc3R5bGU9IndpZHRoOjIxMDVweDtoZWlnaHQ6MTk3cHg7YmFja2dyb3VuZDojRkZGRkZGOyIgdmVyc2lvbj0iMS4xIiB2aWV3Qm94PSIwIDAgMjEwNSAxOTciIHdpZHRoPSIyMTA1cHgiIHpvb21BbmRQYW49Im1hZ25pZnkiPjxkZWZzLz48Zz48IS0tY2x1c3RlciA/Pz8/Pz8/Py0tPjxnIGlkPSJjbHVzdGVyXyYjMjAyNTA7JiMyMTU5MjsmIzIwMTA3OyYjMjAyMTQ7JiMyMjc4ODsmIzI5NzAyOyYjMzE5OTU7JiMzMjQ3OTsiPjxyZWN0IGZpbGw9Im5vbmUiIGhlaWdodD0iODQiIHJ4PSIyLjUiIHJ5PSIyLjUiIHN0eWxlPSJzdHJva2U6IzE4MTgxODtzdHJva2Utd2lkdGg6MS4wOyIgd2lkdGg9IjIwOTIiIHg9IjciIHk9IjEwNy41Ii8+PHRleHQgZmlsbD0iIzAwMDAwMCIgZm9udC1mYW1pbHk9InNhbnMtc2VyaWYiIGZvbnQtc2l6ZT0iMTQiIGZvbnQtd2VpZ2h0PSJib2xkIiBsZW5ndGhBZGp1c3Q9InNwYWNpbmciIHRleHRMZW5ndGg9IjExMiIgeD0iOTk3IiB5PSIxMjIuNzM0NCI+JiMyMDI1MDsmIzIxNTkyOyYjMjAxMDc7JiMyMDIxNDsmIzIyNzg4OyYjMjk3MDI7JiMzMTk5NTsmIzMyNDc5OzwvdGV4dD48L2c+PGcgaWQ9ImVsZW1fJiMyNzg4MDsmIzIwODc2OyYjMjYwMzI7JiMyOTk5MjsmIzI1MTQzOyI+PGVsbGlwc2UgY3g9IjIwMjQuMDM2NyIgY3k9IjE1OC4xMDczIiBmaWxsPSIjRjFGMUYxIiByeD0iNTguNTM2NyIgcnk9IjE0LjEwNzMiIHN0eWxlPSJzdHJva2U6IzE4MTgxODtzdHJva2Utd2lkdGg6MC41OyIvPjx0ZXh0IGZpbGw9IiMwMDAwMDAiIGZvbnQtZmFtaWx5PSJzYW5zLXNlcmlmIiBmb250LXNpemU9IjE0IiBsZW5ndGhBZGp1c3Q9InNwYWNpbmciIHRleHRMZW5ndGg9IjcwIiB4PSIxOTg5LjAzNjciIHk9IjE2MS44NDk1Ij4mIzI3ODgwOyYjMjA4NzY7JiMyNjAzMjsmIzI5OTkyOyYjMjUxNDM7PC90ZXh0PjwvZz48ZyBpZD0iZWxlbV8mIzIzNDM2OyYjMjE4OTI7JiMyMDAxMDsmIzIwMTU0OyYjMzYxNjQ7JiMyNjAwOTsiPjxlbGxpcHNlIGN4PSIxODY1Ljg4NzgiIGN5PSIxNTguMTc3NiIgZmlsbD0iI0YxRjFGMSIgcng9IjYzLjg4NzgiIHJ5PSIxNS4xNzc2IiBzdHlsZT0ic3Ryb2tlOiMxODE4MTg7c3Ryb2tlLXdpZHRoOjAuNTsiLz48dGV4dCBmaWxsPSIjMDAwMDAwIiBmb250LWZhbWlseT0ic2Fucy1zZXJpZiIgZm9udC1zaXplPSIxNCIgbGVuZ3RoQWRqdXN0PSJzcGFjaW5nIiB0ZXh0TGVuZ3RoPSI4NCIgeD0iMTgyMy44ODc4IiB5PSIxNjEuOTE5NyI+JiMyMzQzNjsmIzIxODkyOyYjMjAwMTA7JiMyMDE1NDsmIzM2MTY0OyYjMjYwMDk7PC90ZXh0PjwvZz48ZyBpZD0iZWxlbV8mIzI3NTk5OyYjMjYwODU7JiMzMTYxNDsmIzIxMDQwOyI+PGVsbGlwc2UgY3g9IjE3MTYuMDgzMyIgY3k9IjE1OC4wOTU2IiBmaWxsPSIjRjFGMUYxIiByeD0iNTEuMDgzMyIgcnk9IjEzLjU5NTYiIHN0eWxlPSJzdHJva2U6IzE4MTgxODtzdHJva2Utd2lkdGg6MC41OyIvPjx0ZXh0IGZpbGw9IiMwMDAwMDAiIGZvbnQtZmFtaWx5PSJzYW5zLXNlcmlmIiBmb250LXNpemU9IjE0IiBsZW5ndGhBZGp1c3Q9InNwYWNpbmciIHRleHRMZW5ndGg9IjU2IiB4PSIxNjg4LjA4MzMiIHk9IjE2MS44Mzc3Ij4mIzI3NTk5OyYjMjYwODU7JiMzMTYxNDsmIzIxMDQwOzwvdGV4dD48L2c+PGcgaWQ9ImVsZW1fJiMzNjgzMDsmIzMyNDkzOyYjMzE2MTQ7JiMyMTA0MDsiPjxlbGxpcHNlIGN4PSIxNTc5LjA4MzMiIGN5PSIxNTguMDk1NiIgZmlsbD0iI0YxRjFGMSIgcng9IjUxLjA4MzMiIHJ5PSIxMy41OTU2IiBzdHlsZT0ic3Ryb2tlOiMxODE4MTg7c3Ryb2tlLXdpZHRoOjAuNTsiLz48dGV4dCBmaWxsPSIjMDAwMDAwIiBmb250LWZhbWlseT0ic2Fucy1zZXJpZiIgZm9udC1zaXplPSIxNCIgbGVuZ3RoQWRqdXN0PSJzcGFjaW5nIiB0ZXh0TGVuZ3RoPSI1NiIgeD0iMTU1MS4wODMzIiB5PSIxNjEuODM3NyI+JiMzNjgzMDsmIzMyNDkzOyYjMzE2MTQ7JiMyMTA0MDs8L3RleHQ+PC9nPjxnIGlkPSJlbGVtXyYjMjc1OTk7JiMyNjA4NTsmIzM5MzE4OyYjMjc0MjU7JiMzMDMzMTsmIzI0NDA1OyI+PGVsbGlwc2UgY3g9IjE0MjguODg3OCIgY3k9IjE1OC4xNzc2IiBmaWxsPSIjRjFGMUYxIiByeD0iNjMuODg3OCIgcnk9IjE1LjE3NzYiIHN0eWxlPSJzdHJva2U6IzE4MTgxODtzdHJva2Utd2lkdGg6MC41OyIvPjx0ZXh0IGZpbGw9IiMwMDAwMDAiIGZvbnQtZmFtaWx5PSJzYW5zLXNlcmlmIiBmb250LXNpemU9IjE0IiBsZW5ndGhBZGp1c3Q9InNwYWNpbmciIHRleHRMZW5ndGg9Ijg0IiB4PSIxMzg2Ljg4NzgiIHk9IjE2MS45MTk3Ij4mIzI3NTk5OyYjMjYwODU7JiMzOTMxODsmIzI3NDI1OyYjMzAzMzE7JiMyNDQwNTs8L3RleHQ+PC9nPjxnIGlkPSJlbGVtXyYjMjc5ODM7JiMzNTI3MjsmIzIxODMwOyYjMjE2OTc7Ij48ZWxsaXBzZSBjeD0iMTI3OS4wODMzIiBjeT0iMTU4LjA5NTYiIGZpbGw9IiNGMUYxRjEiIHJ4PSI1MS4wODMzIiByeT0iMTMuNTk1NiIgc3R5bGU9InN0cm9rZTojMTgxODE4O3N0cm9rZS13aWR0aDowLjU7Ii8+PHRleHQgZmlsbD0iIzAwMDAwMCIgZm9udC1mYW1pbHk9InNhbnMtc2VyaWYiIGZvbnQtc2l6ZT0iMTQiIGxlbmd0aEFkanVzdD0ic3BhY2luZyIgdGV4dExlbmd0aD0iNTYiIHg9IjEyNTEuMDgzMyIgeT0iMTYxLjgzNzciPiYjMjc5ODM7JiMzNTI3MjsmIzIxODMwOyYjMjE2OTc7PC90ZXh0PjwvZz48ZyBpZD0iZWxlbV8mIzM1NzgwOyYjMjAyMTU7JiMyMjg3MDsmIzIxMTY5OyI+PGVsbGlwc2UgY3g9IjExNDIuMDgzMyIgY3k9IjE1OC4wOTU2IiBmaWxsPSIjRjFGMUYxIiByeD0iNTEuMDgzMyIgcnk9IjEzLjU5NTYiIHN0eWxlPSJzdHJva2U6IzE4MTgxODtzdHJva2Utd2lkdGg6MC41OyIvPjx0ZXh0IGZpbGw9IiMwMDAwMDAiIGZvbnQtZmFtaWx5PSJzYW5zLXNlcmlmIiBmb250LXNpemU9IjE0IiBsZW5ndGhBZGp1c3Q9InNwYWNpbmciIHRleHRMZW5ndGg9IjU2IiB4PSIxMTE0LjA4MzMiIHk9IjE2MS44Mzc3Ij4mIzM1NzgwOyYjMjAyMTU7JiMyMjg3MDsmIzIxMTY5OzwvdGV4dD48L2c+PGcgaWQ9ImVsZW1fJiMzMTIxNTsmIzIwOTk4OyYjMjA4MTc7JiMyNTQ0MjsiPjxlbGxpcHNlIGN4PSIxMDA1LjA4MzMiIGN5PSIxNTguMDk1NiIgZmlsbD0iI0YxRjFGMSIgcng9IjUxLjA4MzMiIHJ5PSIxMy41OTU2IiBzdHlsZT0ic3Ryb2tlOiMxODE4MTg7c3Ryb2tlLXdpZHRoOjAuNTsiLz48dGV4dCBmaWxsPSIjMDAwMDAwIiBmb250LWZhbWlseT0ic2Fucy1zZXJpZiIgZm9udC1zaXplPSIxNCIgbGVuZ3RoQWRqdXN0PSJzcGFjaW5nIiB0ZXh0TGVuZ3RoPSI1NiIgeD0iOTc3LjA4MzMiIHk9IjE2MS44Mzc3Ij4mIzMxMjE1OyYjMjA5OTg7JiMyMDgxNzsmIzI1NDQyOzwvdGV4dD48L2c+PGcgaWQ9ImVsZW1fJiMzODM4MjsmIzIxMzY3OyYjMzU4NDM7JiMyNjU5NzsiPjxlbGxpcHNlIGN4PSI4NjguMDgzMyIgY3k9IjE1OC4wOTU2IiBmaWxsPSIjRjFGMUYxIiByeD0iNTEuMDgzMyIgcnk9IjEzLjU5NTYiIHN0eWxlPSJzdHJva2U6IzE4MTgxODtzdHJva2Utd2lkdGg6MC41OyIvPjx0ZXh0IGZpbGw9IiMwMDAwMDAiIGZvbnQtZmFtaWx5PSJzYW5zLXNlcmlmIiBmb250LXNpemU9IjE0IiBsZW5ndGhBZGp1c3Q9InNwYWNpbmciIHRleHRMZW5ndGg9IjU2IiB4PSI4NDAuMDgzMyIgeT0iMTYxLjgzNzciPiYjMzgzODI7JiMyMTM2NzsmIzM1ODQzOyYjMjY1OTc7PC90ZXh0PjwvZz48ZyBpZD0iZWxlbV8mIzIxNDQyOyYjMTk5ODI7JiMyNzk2MzsmIzIxMTYwOyI+PGVsbGlwc2UgY3g9IjczMS4wODMzIiBjeT0iMTU4LjA5NTYiIGZpbGw9IiNGMUYxRjEiIHJ4PSI1MS4wODMzIiByeT0iMTMuNTk1NiIgc3R5bGU9InN0cm9rZTojMTgxODE4O3N0cm9rZS13aWR0aDowLjU7Ii8+PHRleHQgZmlsbD0iIzAwMDAwMCIgZm9udC1mYW1pbHk9InNhbnMtc2VyaWYiIGZvbnQtc2l6ZT0iMTQiIGxlbmd0aEFkanVzdD0ic3BhY2luZyIgdGV4dExlbmd0aD0iNTYiIHg9IjcwMy4wODMzIiB5PSIxNjEuODM3NyI+JiMyMTQ0MjsmIzE5OTgyOyYjMjc5NjM7JiMyMTE2MDs8L3RleHQ+PC9nPjxnIGlkPSJlbGVtXyYjMjgwNDA7JiMzNjE1MzsiPjxlbGxpcHNlIGN4PSI2MTIuNzg0MyIgY3k9IjE1OC4wOTU2IiBmaWxsPSIjRjFGMUYxIiByeD0iMzEuMjg0MyIgcnk9IjEzLjU5NTYiIHN0eWxlPSJzdHJva2U6IzE4MTgxODtzdHJva2Utd2lkdGg6MC41OyIvPjx0ZXh0IGZpbGw9IiMwMDAwMDAiIGZvbnQtZmFtaWx5PSJzYW5zLXNlcmlmIiBmb250LXNpemU9IjE0IiBsZW5ndGhBZGp1c3Q9InNwYWNpbmciIHRleHRMZW5ndGg9IjI4IiB4PSI1OTguNzg0MyIgeT0iMTYxLjgzNzciPiYjMjgwNDA7JiMzNjE1Mzs8L3RleHQ+PC9nPjxnIGlkPSJlbGVtXyYjMjA5OTg7JiMyMDEzOTsiPjxlbGxpcHNlIGN4PSI1MTQuNzg0MyIgY3k9IjE1OC4wOTU2IiBmaWxsPSIjRjFGMUYxIiByeD0iMzEuMjg0MyIgcnk9IjEzLjU5NTYiIHN0eWxlPSJzdHJva2U6IzE4MTgxODtzdHJva2Utd2lkdGg6MC41OyIvPjx0ZXh0IGZpbGw9IiMwMDAwMDAiIGZvbnQtZmFtaWx5PSJzYW5zLXNlcmlmIiBmb250LXNpemU9IjE0IiBsZW5ndGhBZGp1c3Q9InNwYWNpbmciIHRleHRMZW5ndGg9IjI4IiB4PSI1MDAuNzg0MyIgeT0iMTYxLjgzNzciPiYjMjA5OTg7JiMyMDEzOTs8L3RleHQ+PC9nPjxnIGlkPSJlbGVtXyYjMjgxNTU7JiMyMTE1MjsmIzI1MTA0OyYjMzgyNzE7JiMyMDU0MDsmIzI1MTEwOyYjMzEyMTU7JiMyMDk5ODsiPjxlbGxpcHNlIGN4PSIzNzIuOTM4NCIgY3k9IjE1Ny45ODc3IiBmaWxsPSIjRjFGMUYxIiByeD0iNzUuNDM4NCIgcnk9IjE3LjQ4NzciIHN0eWxlPSJzdHJva2U6IzE4MTgxODtzdHJva2Utd2lkdGg6MC41OyIvPjx0ZXh0IGZpbGw9IiMwMDAwMDAiIGZvbnQtZmFtaWx5PSJzYW5zLXNlcmlmIiBmb250LXNpemU9IjE0IiBsZW5ndGhBZGp1c3Q9InNwYWNpbmciIHRleHRMZW5ndGg9IjExMiIgeD0iMzE2LjkzODQiIHk9IjE2MS43Mjk5Ij4mIzI4MTU1OyYjMjExNTI7JiMyNTEwNDsmIzM4MjcxOyYjMjA1NDA7JiMyNTExMDsmIzMxMjE1OyYjMjA5OTg7PC90ZXh0PjwvZz48ZyBpZD0iZWxlbV8mIzIwMjUwOyYjMjE1OTI7JiMyMTMxOTsmIzMyNDIzOyI+PGVsbGlwc2UgY3g9IjIxMS4wODMzIiBjeT0iMTU4LjA5NTYiIGZpbGw9IiNGMUYxRjEiIHJ4PSI1MS4wODMzIiByeT0iMTMuNTk1NiIgc3R5bGU9InN0cm9rZTojMTgxODE4O3N0cm9rZS13aWR0aDowLjU7Ii8+PHRleHQgZmlsbD0iIzAwMDAwMCIgZm9udC1mYW1pbHk9InNhbnMtc2VyaWYiIGZvbnQtc2l6ZT0iMTQiIGxlbmd0aEFkanVzdD0ic3BhY2luZyIgdGV4dExlbmd0aD0iNTYiIHg9IjE4My4wODMzIiB5PSIxNjEuODM3NyI+JiMyMDI1MDsmIzIxNTkyOyYjMjEzMTk7JiMzMjQyMzs8L3RleHQ+PC9nPjxnIGlkPSJlbGVtXyYjMzEyMTU7JiMyMDk5ODsmIzM2ODA3OyYjMjYzOTk7Ij48ZWxsaXBzZSBjeD0iNzQuMDgzMyIgY3k9IjE1OC4wOTU2IiBmaWxsPSIjRjFGMUYxIiByeD0iNTEuMDgzMyIgcnk9IjEzLjU5NTYiIHN0eWxlPSJzdHJva2U6IzE4MTgxODtzdHJva2Utd2lkdGg6MC41OyIvPjx0ZXh0IGZpbGw9IiMwMDAwMDAiIGZvbnQtZmFtaWx5PSJzYW5zLXNlcmlmIiBmb250LXNpemU9IjE0IiBsZW5ndGhBZGp1c3Q9InNwYWNpbmciIHRleHRMZW5ndGg9IjU2IiB4PSI0Ni4wODMzIiB5PSIxNjEuODM3NyI+JiMzMTIxNTsmIzIwOTk4OyYjMzY4MDc7JiMyNjM5OTs8L3RleHQ+PC9nPjwhLS1lbnRpdHkgPz8/Py0tPjxnIGlkPSJlbGVtXyYjMjAyNTA7JiMyMTU5MjsmIzI5OTkyOyYjMjUxNDM7Ij48ZWxsaXBzZSBjeD0iMTAwNSIgY3k9IjE0IiBmaWxsPSIjRjFGMUYxIiByeD0iOCIgcnk9IjgiIHN0eWxlPSJzdHJva2U6IzE4MTgxODtzdHJva2Utd2lkdGg6MC41OyIvPjxwYXRoIGQ9Ik0xMDA1LDIyIEwxMDA1LDQ5IE05OTIsMzAgTDEwMTgsMzAgTTEwMDUsNDkgTDk5Miw2NCBNMTAwNSw0OSBMMTAxOCw2NCAiIGZpbGw9Im5vbmUiIHN0eWxlPSJzdHJva2U6IzE4MTgxODtzdHJva2Utd2lkdGg6MC41OyIvPjx0ZXh0IGZpbGw9IiMwMDAwMDAiIGZvbnQtZmFtaWx5PSJzYW5zLXNlcmlmIiBmb250LXNpemU9IjE0IiBsZW5ndGhBZGp1c3Q9InNwYWNpbmciIHRleHRMZW5ndGg9IjU2IiB4PSI5NzciIHk9Ijc4LjczNDQiPiYjMjAyNTA7JiMyMTU5MjsmIzI5OTkyOyYjMjUxNDM7PC90ZXh0PjwvZz48IS0tbGluayA/Pz8/IHRvID8/Pz8/LS0+PGcgaWQ9ImxpbmtfJiMyMDI1MDsmIzIxNTkyOyYjMjk5OTI7JiMyNTE0MztfJiMyNzg4MDsmIzIwODc2OyYjMjYwMzI7JiMyOTk5MjsmIzI1MTQzOyI+PHBhdGggZD0iTTEwMzMuMjMsNDQuNjkgQzExODAuODEsNDguNCAxODYwLjI5LDY3LjE2IDE5NDgsOTkuNSBDMTk3My43NywxMDkgMTk5OC4wNywxMzAuMzYgMjAxMS45OCwxNDQuMiAiIGZpbGw9Im5vbmUiIGlkPSImIzIwMjUwOyYjMjE1OTI7JiMyOTk5MjsmIzI1MTQzOy0mIzI3ODgwOyYjMjA4NzY7JiMyNjAzMjsmIzI5OTkyOyYjMjUxNDM7IiBzdHlsZT0ic3Ryb2tlOiMxODE4MTg7c3Ryb2tlLXdpZHRoOjEuMDsiLz48L2c+PCEtLWxpbmsgPz8/PyB0byA/Pz8/Pz8tLT48ZyBpZD0ibGlua18mIzIwMjUwOyYjMjE1OTI7JiMyOTk5MjsmIzI1MTQzO18mIzIzNDM2OyYjMjE4OTI7JiMyMDAxMDsmIzIwMTU0OyYjMzYxNjQ7JiMyNjAwOTsiPjxwYXRoIGQ9Ik0xMDMzLjAzLDQzLjk4IEMxMTU1LjMxLDQ0LjIxIDE2NDIuMzUsNDguMzcgMTc4NSw5OS41IEMxODExLjMsMTA4LjkzIDE4MzYuNzUsMTI5LjQ1IDE4NTEuODksMTQzLjI1ICIgZmlsbD0ibm9uZSIgaWQ9IiYjMjAyNTA7JiMyMTU5MjsmIzI5OTkyOyYjMjUxNDM7LSYjMjM0MzY7JiMyMTg5MjsmIzIwMDEwOyYjMjAxNTQ7JiMzNjE2NDsmIzI2MDA5OyIgc3R5bGU9InN0cm9rZTojMTgxODE4O3N0cm9rZS13aWR0aDoxLjA7Ii8+PC9nPjwhLS1saW5rID8/Pz8gdG8gPz8/Py0tPjxnIGlkPSJsaW5rXyYjMjAyNTA7JiMyMTU5MjsmIzI5OTkyOyYjMjUxNDM7XyYjMjc1OTk7JiMyNjA4NTsmIzMxNjE0OyYjMjEwNDA7Ij48cGF0aCBkPSJNMTAzMy4xOSw0NC4xOCBDMTE0Mi4wMSw0NS4yMiAxNTM0LjMyLDUyLjI0IDE2NDgsOTkuNSBDMTY3MS43LDEwOS4zNSAxNjkzLjI1LDEzMC42IDE3MDUuNDgsMTQ0LjMzICIgZmlsbD0ibm9uZSIgaWQ9IiYjMjAyNTA7JiMyMTU5MjsmIzI5OTkyOyYjMjUxNDM7LSYjMjc1OTk7JiMyNjA4NTsmIzMxNjE0OyYjMjEwNDA7IiBzdHlsZT0ic3Ryb2tlOiMxODE4MTg7c3Ryb2tlLXdpZHRoOjEuMDsiLz48L2c+PCEtLWxpbmsgPz8/PyB0byA/Pz8/LS0+PGcgaWQ9ImxpbmtfJiMyMDI1MDsmIzIxNTkyOyYjMjk5OTI7JiMyNTE0MztfJiMzNjgzMDsmIzMyNDkzOyYjMzE2MTQ7JiMyMTA0MDsiPjxwYXRoIGQ9Ik0xMDMzLjA2LDQ0LjkzIEMxMTI2LjE0LDQ4LjM1IDE0MjMuNzEsNjIuMDIgMTUxMSw5OS41IEMxNTM0LjU4LDEwOS42MyAxNTU2LjE3LDEzMC44IDE1NjguNDQsMTQ0LjQzICIgZmlsbD0ibm9uZSIgaWQ9IiYjMjAyNTA7JiMyMTU5MjsmIzI5OTkyOyYjMjUxNDM7LSYjMzY4MzA7JiMzMjQ5MzsmIzMxNjE0OyYjMjEwNDA7IiBzdHlsZT0ic3Ryb2tlOiMxODE4MTg7c3Ryb2tlLXdpZHRoOjEuMDsiLz48L2c+PCEtLWxpbmsgPz8/PyB0byA/Pz8/Pz8tLT48ZyBpZD0ibGlua18mIzIwMjUwOyYjMjE1OTI7JiMyOTk5MjsmIzI1MTQzO18mIzI3NTk5OyYjMjYwODU7JiMzOTMxODsmIzI3NDI1OyYjMzAzMzE7JiMyNDQwNTsiPjxwYXRoIGQ9Ik0xMDMzLjI4LDQ0LjI5IEMxMDkzLjQ3LDQ1LjgyIDEyMzcuNzYsNTQuMzMgMTM0OCw5OS41IEMxMzczLjUzLDEwOS45NiAxMzk4Ljc5LDEyOS44MSAxNDE0LjE0LDE0My4yMiAiIGZpbGw9Im5vbmUiIGlkPSImIzIwMjUwOyYjMjE1OTI7JiMyOTk5MjsmIzI1MTQzOy0mIzI3NTk5OyYjMjYwODU7JiMzOTMxODsmIzI3NDI1OyYjMzAzMzE7JiMyNDQwNTsiIHN0eWxlPSJzdHJva2U6IzE4MTgxODtzdHJva2Utd2lkdGg6MS4wOyIvPjwvZz48IS0tbGluayA/Pz8/IHRvID8/Pz8tLT48ZyBpZD0ibGlua18mIzIwMjUwOyYjMjE1OTI7JiMyOTk5MjsmIzI1MTQzO18mIzI3OTgzOyYjMzUyNzI7JiMyMTgzMDsmIzIxNjk3OyI+PHBhdGggZD0iTTEwMzMuMDcsNDcuNTkgQzEwNzQuMDksNTMuNjkgMTE1MS45NCw2OC41NiAxMjExLDk5LjUgQzEyMzMuNDYsMTExLjI3IDEyNTUuMDUsMTMxLjU1IDEyNjcuNjcsMTQ0LjYyICIgZmlsbD0ibm9uZSIgaWQ9IiYjMjAyNTA7JiMyMTU5MjsmIzI5OTkyOyYjMjUxNDM7LSYjMjc5ODM7JiMzNTI3MjsmIzIxODMwOyYjMjE2OTc7IiBzdHlsZT0ic3Ryb2tlOiMxODE4MTg7c3Ryb2tlLXdpZHRoOjEuMDsiLz48L2c+PCEtLWxpbmsgPz8/PyB0byA/Pz8/LS0+PGcgaWQ9ImxpbmtfJiMyMDI1MDsmIzIxNTkyOyYjMjk5OTI7JiMyNTE0MztfJiMzNTc4MDsmIzIwMjE1OyYjMjI4NzA7JiMyMTE2OTsiPjxwYXRoIGQ9Ik0xMDMzLjMzLDY2LjUzIEMxMDQ1Ljg1LDc2LjU1IDEwNjAuNzIsODguNTQgMTA3NCw5OS41IEMxMDkyLjg0LDExNS4wNCAxMTE0LjMzLDEzMy4zIDExMjguMDIsMTQ1LjAxICIgZmlsbD0ibm9uZSIgaWQ9IiYjMjAyNTA7JiMyMTU5MjsmIzI5OTkyOyYjMjUxNDM7LSYjMzU3ODA7JiMyMDIxNTsmIzIyODcwOyYjMjExNjk7IiBzdHlsZT0ic3Ryb2tlOiMxODE4MTg7c3Ryb2tlLXdpZHRoOjEuMDsiLz48L2c+PCEtLWxpbmsgPz8/PyB0byA/Pz8/LS0+PGcgaWQ9ImxpbmtfJiMyMDI1MDsmIzIxNTkyOyYjMjk5OTI7JiMyNTE0MztfJiMzMTIxNTsmIzIwOTk4OyYjMjA4MTc7JiMyNTQ0MjsiPjxwYXRoIGQ9Ik0xMDA1LDgwLjY5IEMxMDA1LDEwMi42IDEwMDUsMTI5LjA2IDEwMDUsMTQ0LjM3ICIgZmlsbD0ibm9uZSIgaWQ9IiYjMjAyNTA7JiMyMTU5MjsmIzI5OTkyOyYjMjUxNDM7LSYjMzEyMTU7JiMyMDk5ODsmIzIwODE3OyYjMjU0NDI7IiBzdHlsZT0ic3Ryb2tlOiMxODE4MTg7c3Ryb2tlLXdpZHRoOjEuMDsiLz48L2c+PCEtLWxpbmsgPz8/PyB0byA/Pz8/LS0+PGcgaWQ9ImxpbmtfJiMyMDI1MDsmIzIxNTkyOyYjMjk5OTI7JiMyNTE0MztfJiMzODM4MjsmIzIxMzY3OyYjMzU4NDM7JiMyNjU5NzsiPjxwYXRoIGQ9Ik05NzYuODMsNjYuODkgQzk2NC41Nyw3Ni44NyA5NTAuMDUsODguNzQgOTM3LDk5LjUgQzkxOC4xMSwxMTUuMDggODk2LjQ0LDEzMy4xNyA4ODIuNSwxNDQuODQgIiBmaWxsPSJub25lIiBpZD0iJiMyMDI1MDsmIzIxNTkyOyYjMjk5OTI7JiMyNTE0MzstJiMzODM4MjsmIzIxMzY3OyYjMzU4NDM7JiMyNjU5NzsiIHN0eWxlPSJzdHJva2U6IzE4MTgxODtzdHJva2Utd2lkdGg6MS4wOyIvPjwvZz48IS0tbGluayA/Pz8/IHRvID8/Pz8tLT48ZyBpZD0ibGlua18mIzIwMjUwOyYjMjE1OTI7JiMyOTk5MjsmIzI1MTQzO18mIzIxNDQyOyYjMTk5ODI7JiMyNzk2MzsmIzIxMTYwOyI+PHBhdGggZD0iTTk3Ni43NSw0Ny43MyBDOTM1Ljg4LDUzLjk2IDg1OC43Miw2OC45NiA4MDAsOTkuNSBDNzc3LjMxLDExMS4zIDc1NS4zOCwxMzEuNTggNzQyLjU0LDE0NC42MyAiIGZpbGw9Im5vbmUiIGlkPSImIzIwMjUwOyYjMjE1OTI7JiMyOTk5MjsmIzI1MTQzOy0mIzIxNDQyOyYjMTk5ODI7JiMyNzk2MzsmIzIxMTYwOyIgc3R5bGU9InN0cm9rZTojMTgxODE4O3N0cm9rZS13aWR0aDoxLjA7Ii8+PC9nPjwhLS1saW5rID8/Pz8gdG8gPz8tLT48ZyBpZD0ibGlua18mIzIwMjUwOyYjMjE1OTI7JiMyOTk5MjsmIzI1MTQzO18mIzI4MDQwOyYjMzYxNTM7Ij48cGF0aCBkPSJNOTc2Ljg5LDQ2LjEgQzkwNS4xNCw1MS44MyA3MTcuMDcsNjkuNCA2NjMsOTkuNSBDNjQzLjgxLDExMC4xOCA2MjguNDksMTMxLjE5IDYyMC4wOCwxNDQuNjQgIiBmaWxsPSJub25lIiBpZD0iJiMyMDI1MDsmIzIxNTkyOyYjMjk5OTI7JiMyNTE0MzstJiMyODA0MDsmIzM2MTUzOyIgc3R5bGU9InN0cm9rZTojMTgxODE4O3N0cm9rZS13aWR0aDoxLjA7Ii8+PC9nPjwhLS1saW5rID8/Pz8gdG8gPz8tLT48ZyBpZD0ibGlua18mIzIwMjUwOyYjMjE1OTI7JiMyOTk5MjsmIzI1MTQzO18mIzIwOTk4OyYjMjAxMzk7Ij48cGF0aCBkPSJNOTc2Ljc3LDQ0LjkxIEM4OTEuMTcsNDguMDggNjM1Ljk3LDYwLjY0IDU2NCw5OS41IEM1NDQuODQsMTA5Ljg0IDUyOS45MywxMzAuOTUgNTIxLjgxLDE0NC41MSAiIGZpbGw9Im5vbmUiIGlkPSImIzIwMjUwOyYjMjE1OTI7JiMyOTk5MjsmIzI1MTQzOy0mIzIwOTk4OyYjMjAxMzk7IiBzdHlsZT0ic3Ryb2tlOiMxODE4MTg7c3Ryb2tlLXdpZHRoOjEuMDsiLz48L2c+PCEtLWxpbmsgPz8/PyB0byA/Pz8/Pz8/Py0tPjxnIGlkPSJsaW5rXyYjMjAyNTA7JiMyMTU5MjsmIzI5OTkyOyYjMjUxNDM7XyYjMjgxNTU7JiMyMTE1MjsmIzI1MTA0OyYjMzgyNzE7JiMyMDU0MDsmIzI1MTEwOyYjMzEyMTU7JiMyMDk5ODsiPjxwYXRoIGQ9Ik05NzYuNjgsNDUuMjQgQzg3OS43OCw0OS43NiA1NjIuMTcsNjYuNzUgNDY2LDk5LjUgQzQzOC42OSwxMDguOCA0MTEuMDIsMTI3LjMzIDM5My4wNSwxNDAuODUgIiBmaWxsPSJub25lIiBpZD0iJiMyMDI1MDsmIzIxNTkyOyYjMjk5OTI7JiMyNTE0MzstJiMyODE1NTsmIzIxMTUyOyYjMjUxMDQ7JiMzODI3MTsmIzIwNTQwOyYjMjUxMTA7JiMzMTIxNTsmIzIwOTk4OyIgc3R5bGU9InN0cm9rZTojMTgxODE4O3N0cm9rZS13aWR0aDoxLjA7Ii8+PC9nPjwhLS1saW5rID8/Pz8gdG8gPz8/Py0tPjxnIGlkPSJsaW5rXyYjMjAyNTA7JiMyMTU5MjsmIzI5OTkyOyYjMjUxNDM7XyYjMjAyNTA7JiMyMTU5MjsmIzIxMzE5OyYjMzI0MjM7Ij48cGF0aCBkPSJNOTc2LjksNDMuODkgQzg1OS43LDQzLjc3IDQwOS44NCw0Ni44IDI4MCw5OS41IEMyNTUuODcsMTA5LjI5IDIzMy44NiwxMzAuNzggMjIxLjQ3LDE0NC41MyAiIGZpbGw9Im5vbmUiIGlkPSImIzIwMjUwOyYjMjE1OTI7JiMyOTk5MjsmIzI1MTQzOy0mIzIwMjUwOyYjMjE1OTI7JiMyMTMxOTsmIzMyNDIzOyIgc3R5bGU9InN0cm9rZTojMTgxODE4O3N0cm9rZS13aWR0aDoxLjA7Ii8+PC9nPjwhLS1saW5rID8/Pz8gdG8gPz8/Py0tPjxnIGlkPSJsaW5rXyYjMjAyNTA7JiMyMTU5MjsmIzI5OTkyOyYjMjUxNDM7XyYjMzEyMTU7JiMyMDk5ODsmIzM2ODA3OyYjMjYzOTk7Ij48cGF0aCBkPSJNOTc2LjksNDQuNzcgQzgzNy4zMiw0OC43NiAyMjEuOTYsNjguMDEgMTQzLDk5LjUgQzExOC42NywxMDkuMjEgOTYuNTYsMTMwLjk0IDg0LjIzLDE0NC43MyAiIGZpbGw9Im5vbmUiIGlkPSImIzIwMjUwOyYjMjE1OTI7JiMyOTk5MjsmIzI1MTQzOy0mIzMxMjE1OyYjMjA5OTg7JiMzNjgwNzsmIzI2Mzk5OyIgc3R5bGU9InN0cm9rZTojMTgxODE4O3N0cm9rZS13aWR0aDoxLjA7Ii8+PC9nPjwhLS1TUkM9W1RQN0JKaTkwNThSdHluR0RVbndnOE9xUmVtZFdZZlh1Z01NMjgxMmJZMzVNWkdYSGtIV2tuR3hRYnZhcHF4dzU5RURZSmdUcy1fdF93SmRwc1FOZ09UZFlzcGxldGlnUmlRMFg4TU1kTEJLRnpsT1RndzAwWm91dk15RUJBcGtVTjMzOVdlOUw4elJrRXdldTlSbFlNNjhuMWd5Zl9GZFYzOXQxajBjLW9wVGxGOGdJYklseTBReEVzZzhfYjlDVmU3QzRhbFgxaWFhRUs4dHFySFNWSnRCMHVCazd5UWdUWjJacUZCVy1uR0RkQmNTWDM3cmVWMjhXSHBFVzdibnFIVWlQV1JHX1hMUU9wQ3o1Q0NHdGpTX3V2YWVpNkpKNi1FVGhjWW9fUzlQd0Y3aDdnTjFOVjFJcWFfUFlFRGFBd2dpTEs0WXpGUkpnQ1hoYmg5bDRUTjRWYTZEMlQ3ak1pTVo4b0Y4UzhTTzhOS2VNOFo3dkpJSjdZRVkyWkU2d2YybjRlaDhHb0o5a3JlS1Ayb2JmSGFVOUN6Ql9vU2k2YVMzeUt2SjRObTAwXS0tPjwvZz48L3N2Zz4=;" vertex="1" parent="1">
            <mxGeometry x="-790" y="10" width="2105" height="197" as="geometry" />
          </mxCell>
        </UserObject>
        <UserObject label="" plantUmlData="{&quot;data&quot;:&quot;@startuml\nactor 会员用户\nparticipant 会员事件处理系统\nparticipant 消息队列\nparticipant 事件分发器\nparticipant 事件处理器\nparticipant 幂等服务\nparticipant 策略服务\nparticipant 成长值明细服务\nparticipant 积分明细服务\nparticipant 主表服务\n\n会员用户 -&gt; 会员事件处理系统 : 触发事件\n会员事件处理系统 -&gt; 消息队列 : 发送事件消息\n消息队列 -&gt; 事件分发器 : 接收消息并分发\n事件分发器 -&gt; 事件处理器 : 分发具体事件\n\n事件处理器 -&gt; 幂等服务 : 检查事件是否重复\n幂等服务 -&gt; 事件处理器 : 返回检查结果\nalt 非重复事件\n    事件处理器 -&gt; 策略服务 : 获取处理策略\n    策略服务 -&gt; 事件处理器 : 返回处理策略\n    事件处理器 -&gt; 成长值明细服务 : 更新成长值明细\n    事件处理器 -&gt; 积分明细服务 : 更新积分明细\n    事件处理器 -&gt; 主表服务 : 更新会员主表\n    alt 升级事件\n        loop 连续升级\n            事件处理器 -&gt; 成长值明细服务 : 更新成长值明细\n            事件处理器 -&gt; 积分明细服务 : 更新积分明细\n            事件处理器 -&gt; 主表服务 : 更新会员主表\n            事件处理器 -&gt; 策略服务 : 获取处理策略\n            策略服务 -&gt; 事件处理器 : 返回处理策略\n            alt 达到下一级别\n                事件处理器 -&gt; 消息队列 : 发送升级消息\n                消息队列 -&gt; 事件分发器 : 接收消息并分发\n                事件分发器 -&gt; 事件处理器 : 分发具体事件\n            end\n        end\n    end\nend\n事件处理器 -&gt; 消息队列 : 发送结果消息\n\n@enduml\n&quot;,&quot;format&quot;:&quot;svg&quot;}" id="8JMTBNHWokN22WQnh1h2-6">
          <mxCell style="shape=image;noLabel=1;verticalAlign=top;aspect=fixed;imageAspect=0;image=data:image/svg+xml,PD94bWwgdmVyc2lvbj0iMS4wIiBlbmNvZGluZz0idXMtYXNjaWkiIHN0YW5kYWxvbmU9Im5vIj8+PHN2ZyB4bWxucz0iaHR0cDovL3d3dy53My5vcmcvMjAwMC9zdmciIHhtbG5zOnhsaW5rPSJodHRwOi8vd3d3LnczLm9yZy8xOTk5L3hsaW5rIiBjb250ZW50U3R5bGVUeXBlPSJ0ZXh0L2NzcyIgaGVpZ2h0PSI4NTdweCIgcHJlc2VydmVBc3BlY3RSYXRpbz0ibm9uZSIgc3R5bGU9IndpZHRoOjEwNTRweDtoZWlnaHQ6ODU3cHg7YmFja2dyb3VuZDojRkZGRkZGOyIgdmVyc2lvbj0iMS4xIiB2aWV3Qm94PSIwIDAgMTA1NCA4NTciIHdpZHRoPSIxMDU0cHgiIHpvb21BbmRQYW49Im1hZ25pZnkiPjxkZWZzLz48Zz48cmVjdCBmaWxsPSJub25lIiBoZWlnaHQ9IjQ2OC41MzkxIiBzdHlsZT0ic3Ryb2tlOiMwMDAwMDA7c3Ryb2tlLXdpZHRoOjEuNTsiIHdpZHRoPSI4NzUiIHg9IjE3MyIgeT0iMjY0LjQ2ODgiLz48cmVjdCBmaWxsPSJub25lIiBoZWlnaHQ9IjI5OS4wNTQ3IiBzdHlsZT0ic3Ryb2tlOiMwMDAwMDA7c3Ryb2tlLXdpZHRoOjEuNTsiIHdpZHRoPSI4NTUiIHg9IjE4MyIgeT0iNDI2Ljk1MzEiLz48cmVjdCBmaWxsPSJub25lIiBoZWlnaHQ9IjI2OS4xNDA2IiBzdHlsZT0ic3Ryb2tlOiMwMDAwMDA7c3Ryb2tlLXdpZHRoOjEuNTsiIHdpZHRoPSI4MzUiIHg9IjE5MyIgeT0iNDQ5Ljg2NzIiLz48cmVjdCBmaWxsPSJub25lIiBoZWlnaHQ9Ijk5LjY1NjMiIHN0eWxlPSJzdHJva2U6IzAwMDAwMDtzdHJva2Utd2lkdGg6MS41OyIgd2lkdGg9IjMxNCIgeD0iMjAzIiB5PSI2MTIuMzUxNiIvPjxsaW5lIHN0eWxlPSJzdHJva2U6IzE4MTgxODtzdHJva2Utd2lkdGg6MC41O3N0cm9rZS1kYXNoYXJyYXk6NS4wLDUuMDsiIHgxPSIzNiIgeDI9IjM2IiB5MT0iNzkuOTg0NCIgeTI9Ijc3Ny45MjE5Ii8+PGxpbmUgc3R5bGU9InN0cm9rZTojMTgxODE4O3N0cm9rZS13aWR0aDowLjU7c3Ryb2tlLWRhc2hhcnJheTo1LjAsNS4wOyIgeDE9IjE0MCIgeDI9IjE0MCIgeTE9Ijc5Ljk4NDQiIHkyPSI3NzcuOTIxOSIvPjxsaW5lIHN0eWxlPSJzdHJva2U6IzE4MTgxODtzdHJva2Utd2lkdGg6MC41O3N0cm9rZS1kYXNoYXJyYXk6NS4wLDUuMDsiIHgxPSIyNDgiIHgyPSIyNDgiIHkxPSI3OS45ODQ0IiB5Mj0iNzc3LjkyMTkiLz48bGluZSBzdHlsZT0ic3Ryb2tlOiMxODE4MTg7c3Ryb2tlLXdpZHRoOjAuNTtzdHJva2UtZGFzaGFycmF5OjUuMCw1LjA7IiB4MT0iMzYzIiB4Mj0iMzYzIiB5MT0iNzkuOTg0NCIgeTI9Ijc3Ny45MjE5Ii8+PGxpbmUgc3R5bGU9InN0cm9rZTojMTgxODE4O3N0cm9rZS13aWR0aDowLjU7c3Ryb2tlLWRhc2hhcnJheTo1LjAsNS4wOyIgeDE9IjQ2NSIgeDI9IjQ2NSIgeTE9Ijc5Ljk4NDQiIHkyPSI3NzcuOTIxOSIvPjxsaW5lIHN0eWxlPSJzdHJva2U6IzE4MTgxODtzdHJva2Utd2lkdGg6MC41O3N0cm9rZS1kYXNoYXJyYXk6NS4wLDUuMDsiIHgxPSI1OTMiIHgyPSI1OTMiIHkxPSI3OS45ODQ0IiB5Mj0iNzc3LjkyMTkiLz48bGluZSBzdHlsZT0ic3Ryb2tlOiMxODE4MTg7c3Ryb2tlLXdpZHRoOjAuNTtzdHJva2UtZGFzaGFycmF5OjUuMCw1LjA7IiB4MT0iNjczIiB4Mj0iNjczIiB5MT0iNzkuOTg0NCIgeTI9Ijc3Ny45MjE5Ii8+PGxpbmUgc3R5bGU9InN0cm9rZTojMTgxODE4O3N0cm9rZS13aWR0aDowLjU7c3Ryb2tlLWRhc2hhcnJheTo1LjAsNS4wOyIgeDE9Ijc3NCIgeDI9Ijc3NCIgeTE9Ijc5Ljk4NDQiIHkyPSI3NzcuOTIxOSIvPjxsaW5lIHN0eWxlPSJzdHJva2U6IzE4MTgxODtzdHJva2Utd2lkdGg6MC41O3N0cm9rZS1kYXNoYXJyYXk6NS4wLDUuMDsiIHgxPSI4ODkiIHgyPSI4ODkiIHkxPSI3OS45ODQ0IiB5Mj0iNzc3LjkyMTkiLz48bGluZSBzdHlsZT0ic3Ryb2tlOiMxODE4MTg7c3Ryb2tlLXdpZHRoOjAuNTtzdHJva2UtZGFzaGFycmF5OjUuMCw1LjA7IiB4MT0iOTgzIiB4Mj0iOTgzIiB5MT0iNzkuOTg0NCIgeTI9Ijc3Ny45MjE5Ii8+PHRleHQgZmlsbD0iIzAwMDAwMCIgZm9udC1mYW1pbHk9InNhbnMtc2VyaWYiIGZvbnQtc2l6ZT0iMTQiIGxlbmd0aEFkanVzdD0ic3BhY2luZyIgdGV4dExlbmd0aD0iNTYiIHg9IjUiIHk9Ijc4LjIzNDQiPiYjMjAyNTA7JiMyMTU5MjsmIzI5OTkyOyYjMjUxNDM7PC90ZXh0PjxlbGxpcHNlIGN4PSIzNiIgY3k9IjEzLjUiIGZpbGw9IiNFMkUyRjAiIHJ4PSI4IiByeT0iOCIgc3R5bGU9InN0cm9rZTojMTgxODE4O3N0cm9rZS13aWR0aDowLjU7Ii8+PHBhdGggZD0iTTM2LDIxLjUgTDM2LDQ4LjUgTTIzLDI5LjUgTDQ5LDI5LjUgTTM2LDQ4LjUgTDIzLDYzLjUgTTM2LDQ4LjUgTDQ5LDYzLjUgIiBmaWxsPSJub25lIiBzdHlsZT0ic3Ryb2tlOiMxODE4MTg7c3Ryb2tlLXdpZHRoOjAuNTsiLz48dGV4dCBmaWxsPSIjMDAwMDAwIiBmb250LWZhbWlseT0ic2Fucy1zZXJpZiIgZm9udC1zaXplPSIxNCIgbGVuZ3RoQWRqdXN0PSJzcGFjaW5nIiB0ZXh0TGVuZ3RoPSI1NiIgeD0iNSIgeT0iNzkwLjE1NjMiPiYjMjAyNTA7JiMyMTU5MjsmIzI5OTkyOyYjMjUxNDM7PC90ZXh0PjxlbGxpcHNlIGN4PSIzNiIgY3k9IjgwMC40MDYzIiBmaWxsPSIjRTJFMkYwIiByeD0iOCIgcnk9IjgiIHN0eWxlPSJzdHJva2U6IzE4MTgxODtzdHJva2Utd2lkdGg6MC41OyIvPjxwYXRoIGQ9Ik0zNiw4MDguNDA2MyBMMzYsODM1LjQwNjMgTTIzLDgxNi40MDYzIEw0OSw4MTYuNDA2MyBNMzYsODM1LjQwNjMgTDIzLDg1MC40MDYzIE0zNiw4MzUuNDA2MyBMNDksODUwLjQwNjMgIiBmaWxsPSJub25lIiBzdHlsZT0ic3Ryb2tlOiMxODE4MTg7c3Ryb2tlLXdpZHRoOjAuNTsiLz48cmVjdCBmaWxsPSIjRTJFMkYwIiBoZWlnaHQ9IjI4Ljk4NDQiIHJ4PSIyLjUiIHJ5PSIyLjUiIHN0eWxlPSJzdHJva2U6IzE4MTgxODtzdHJva2Utd2lkdGg6MC41OyIgd2lkdGg9IjEyNiIgeD0iNzciIHk9IjUwIi8+PHRleHQgZmlsbD0iIzAwMDAwMCIgZm9udC1mYW1pbHk9InNhbnMtc2VyaWYiIGZvbnQtc2l6ZT0iMTQiIGxlbmd0aEFkanVzdD0ic3BhY2luZyIgdGV4dExlbmd0aD0iMTEyIiB4PSI4NCIgeT0iNzAuMjM0NCI+JiMyMDI1MDsmIzIxNTkyOyYjMjAxMDc7JiMyMDIxNDsmIzIyNzg4OyYjMjk3MDI7JiMzMTk5NTsmIzMyNDc5OzwvdGV4dD48cmVjdCBmaWxsPSIjRTJFMkYwIiBoZWlnaHQ9IjI4Ljk4NDQiIHJ4PSIyLjUiIHJ5PSIyLjUiIHN0eWxlPSJzdHJva2U6IzE4MTgxODtzdHJva2Utd2lkdGg6MC41OyIgd2lkdGg9IjEyNiIgeD0iNzciIHk9Ijc3Ni45MjE5Ii8+PHRleHQgZmlsbD0iIzAwMDAwMCIgZm9udC1mYW1pbHk9InNhbnMtc2VyaWYiIGZvbnQtc2l6ZT0iMTQiIGxlbmd0aEFkanVzdD0ic3BhY2luZyIgdGV4dExlbmd0aD0iMTEyIiB4PSI4NCIgeT0iNzk3LjE1NjMiPiYjMjAyNTA7JiMyMTU5MjsmIzIwMTA3OyYjMjAyMTQ7JiMyMjc4ODsmIzI5NzAyOyYjMzE5OTU7JiMzMjQ3OTs8L3RleHQ+PHJlY3QgZmlsbD0iI0UyRTJGMCIgaGVpZ2h0PSIyOC45ODQ0IiByeD0iMi41IiByeT0iMi41IiBzdHlsZT0ic3Ryb2tlOiMxODE4MTg7c3Ryb2tlLXdpZHRoOjAuNTsiIHdpZHRoPSI3MCIgeD0iMjEzIiB5PSI1MCIvPjx0ZXh0IGZpbGw9IiMwMDAwMDAiIGZvbnQtZmFtaWx5PSJzYW5zLXNlcmlmIiBmb250LXNpemU9IjE0IiBsZW5ndGhBZGp1c3Q9InNwYWNpbmciIHRleHRMZW5ndGg9IjU2IiB4PSIyMjAiIHk9IjcwLjIzNDQiPiYjMjgwNDA7JiMyNDY4NzsmIzM4NDMxOyYjMjEwMTU7PC90ZXh0PjxyZWN0IGZpbGw9IiNFMkUyRjAiIGhlaWdodD0iMjguOTg0NCIgcng9IjIuNSIgcnk9IjIuNSIgc3R5bGU9InN0cm9rZTojMTgxODE4O3N0cm9rZS13aWR0aDowLjU7IiB3aWR0aD0iNzAiIHg9IjIxMyIgeT0iNzc2LjkyMTkiLz48dGV4dCBmaWxsPSIjMDAwMDAwIiBmb250LWZhbWlseT0ic2Fucy1zZXJpZiIgZm9udC1zaXplPSIxNCIgbGVuZ3RoQWRqdXN0PSJzcGFjaW5nIiB0ZXh0TGVuZ3RoPSI1NiIgeD0iMjIwIiB5PSI3OTcuMTU2MyI+JiMyODA0MDsmIzI0Njg3OyYjMzg0MzE7JiMyMTAxNTs8L3RleHQ+PHJlY3QgZmlsbD0iI0UyRTJGMCIgaGVpZ2h0PSIyOC45ODQ0IiByeD0iMi41IiByeT0iMi41IiBzdHlsZT0ic3Ryb2tlOiMxODE4MTg7c3Ryb2tlLXdpZHRoOjAuNTsiIHdpZHRoPSI4NCIgeD0iMzIxIiB5PSI1MCIvPjx0ZXh0IGZpbGw9IiMwMDAwMDAiIGZvbnQtZmFtaWx5PSJzYW5zLXNlcmlmIiBmb250LXNpemU9IjE0IiBsZW5ndGhBZGp1c3Q9InNwYWNpbmciIHRleHRMZW5ndGg9IjcwIiB4PSIzMjgiIHk9IjcwLjIzNDQiPiYjMjAxMDc7JiMyMDIxNDsmIzIwOTk4OyYjMjE0NTc7JiMyMjEyMDs8L3RleHQ+PHJlY3QgZmlsbD0iI0UyRTJGMCIgaGVpZ2h0PSIyOC45ODQ0IiByeD0iMi41IiByeT0iMi41IiBzdHlsZT0ic3Ryb2tlOiMxODE4MTg7c3Ryb2tlLXdpZHRoOjAuNTsiIHdpZHRoPSI4NCIgeD0iMzIxIiB5PSI3NzYuOTIxOSIvPjx0ZXh0IGZpbGw9IiMwMDAwMDAiIGZvbnQtZmFtaWx5PSJzYW5zLXNlcmlmIiBmb250LXNpemU9IjE0IiBsZW5ndGhBZGp1c3Q9InNwYWNpbmciIHRleHRMZW5ndGg9IjcwIiB4PSIzMjgiIHk9Ijc5Ny4xNTYzIj4mIzIwMTA3OyYjMjAyMTQ7JiMyMDk5ODsmIzIxNDU3OyYjMjIxMjA7PC90ZXh0PjxyZWN0IGZpbGw9IiNFMkUyRjAiIGhlaWdodD0iMjguOTg0NCIgcng9IjIuNSIgcnk9IjIuNSIgc3R5bGU9InN0cm9rZTojMTgxODE4O3N0cm9rZS13aWR0aDowLjU7IiB3aWR0aD0iODQiIHg9IjQyMyIgeT0iNTAiLz48dGV4dCBmaWxsPSIjMDAwMDAwIiBmb250LWZhbWlseT0ic2Fucy1zZXJpZiIgZm9udC1zaXplPSIxNCIgbGVuZ3RoQWRqdXN0PSJzcGFjaW5nIiB0ZXh0TGVuZ3RoPSI3MCIgeD0iNDMwIiB5PSI3MC4yMzQ0Ij4mIzIwMTA3OyYjMjAyMTQ7JiMyMjc4ODsmIzI5NzAyOyYjMjIxMjA7PC90ZXh0PjxyZWN0IGZpbGw9IiNFMkUyRjAiIGhlaWdodD0iMjguOTg0NCIgcng9IjIuNSIgcnk9IjIuNSIgc3R5bGU9InN0cm9rZTojMTgxODE4O3N0cm9rZS13aWR0aDowLjU7IiB3aWR0aD0iODQiIHg9IjQyMyIgeT0iNzc2LjkyMTkiLz48dGV4dCBmaWxsPSIjMDAwMDAwIiBmb250LWZhbWlseT0ic2Fucy1zZXJpZiIgZm9udC1zaXplPSIxNCIgbGVuZ3RoQWRqdXN0PSJzcGFjaW5nIiB0ZXh0TGVuZ3RoPSI3MCIgeD0iNDMwIiB5PSI3OTcuMTU2MyI+JiMyMDEwNzsmIzIwMjE0OyYjMjI3ODg7JiMyOTcwMjsmIzIyMTIwOzwvdGV4dD48cmVjdCBmaWxsPSIjRTJFMkYwIiBoZWlnaHQ9IjI4Ljk4NDQiIHJ4PSIyLjUiIHJ5PSIyLjUiIHN0eWxlPSJzdHJva2U6IzE4MTgxODtzdHJva2Utd2lkdGg6MC41OyIgd2lkdGg9IjcwIiB4PSI1NTgiIHk9IjUwIi8+PHRleHQgZmlsbD0iIzAwMDAwMCIgZm9udC1mYW1pbHk9InNhbnMtc2VyaWYiIGZvbnQtc2l6ZT0iMTQiIGxlbmd0aEFkanVzdD0ic3BhY2luZyIgdGV4dExlbmd0aD0iNTYiIHg9IjU2NSIgeT0iNzAuMjM0NCI+JiMyNDEzMDsmIzMxNTYxOyYjMjYzODE7JiMyMTE1Mzs8L3RleHQ+PHJlY3QgZmlsbD0iI0UyRTJGMCIgaGVpZ2h0PSIyOC45ODQ0IiByeD0iMi41IiByeT0iMi41IiBzdHlsZT0ic3Ryb2tlOiMxODE4MTg7c3Ryb2tlLXdpZHRoOjAuNTsiIHdpZHRoPSI3MCIgeD0iNTU4IiB5PSI3NzYuOTIxOSIvPjx0ZXh0IGZpbGw9IiMwMDAwMDAiIGZvbnQtZmFtaWx5PSJzYW5zLXNlcmlmIiBmb250LXNpemU9IjE0IiBsZW5ndGhBZGp1c3Q9InNwYWNpbmciIHRleHRMZW5ndGg9IjU2IiB4PSI1NjUiIHk9Ijc5Ny4xNTYzIj4mIzI0MTMwOyYjMzE1NjE7JiMyNjM4MTsmIzIxMTUzOzwvdGV4dD48cmVjdCBmaWxsPSIjRTJFMkYwIiBoZWlnaHQ9IjI4Ljk4NDQiIHJ4PSIyLjUiIHJ5PSIyLjUiIHN0eWxlPSJzdHJva2U6IzE4MTgxODtzdHJva2Utd2lkdGg6MC41OyIgd2lkdGg9IjcwIiB4PSI2MzgiIHk9IjUwIi8+PHRleHQgZmlsbD0iIzAwMDAwMCIgZm9udC1mYW1pbHk9InNhbnMtc2VyaWYiIGZvbnQtc2l6ZT0iMTQiIGxlbmd0aEFkanVzdD0ic3BhY2luZyIgdGV4dExlbmd0aD0iNTYiIHg9IjY0NSIgeT0iNzAuMjM0NCI+JiMzMTU3NDsmIzMwMDUzOyYjMjYzODE7JiMyMTE1Mzs8L3RleHQ+PHJlY3QgZmlsbD0iI0UyRTJGMCIgaGVpZ2h0PSIyOC45ODQ0IiByeD0iMi41IiByeT0iMi41IiBzdHlsZT0ic3Ryb2tlOiMxODE4MTg7c3Ryb2tlLXdpZHRoOjAuNTsiIHdpZHRoPSI3MCIgeD0iNjM4IiB5PSI3NzYuOTIxOSIvPjx0ZXh0IGZpbGw9IiMwMDAwMDAiIGZvbnQtZmFtaWx5PSJzYW5zLXNlcmlmIiBmb250LXNpemU9IjE0IiBsZW5ndGhBZGp1c3Q9InNwYWNpbmciIHRleHRMZW5ndGg9IjU2IiB4PSI2NDUiIHk9Ijc5Ny4xNTYzIj4mIzMxNTc0OyYjMzAwNTM7JiMyNjM4MTsmIzIxMTUzOzwvdGV4dD48cmVjdCBmaWxsPSIjRTJFMkYwIiBoZWlnaHQ9IjI4Ljk4NDQiIHJ4PSIyLjUiIHJ5PSIyLjUiIHN0eWxlPSJzdHJva2U6IzE4MTgxODtzdHJva2Utd2lkdGg6MC41OyIgd2lkdGg9IjExMiIgeD0iNzE4IiB5PSI1MCIvPjx0ZXh0IGZpbGw9IiMwMDAwMDAiIGZvbnQtZmFtaWx5PSJzYW5zLXNlcmlmIiBmb250LXNpemU9IjE0IiBsZW5ndGhBZGp1c3Q9InNwYWNpbmciIHRleHRMZW5ndGg9Ijk4IiB4PSI3MjUiIHk9IjcwLjIzNDQiPiYjMjUxMDQ7JiMzODI3MTsmIzIwNTQwOyYjMjYxMjY7JiMzMjQ1NDsmIzI2MzgxOyYjMjExNTM7PC90ZXh0PjxyZWN0IGZpbGw9IiNFMkUyRjAiIGhlaWdodD0iMjguOTg0NCIgcng9IjIuNSIgcnk9IjIuNSIgc3R5bGU9InN0cm9rZTojMTgxODE4O3N0cm9rZS13aWR0aDowLjU7IiB3aWR0aD0iMTEyIiB4PSI3MTgiIHk9Ijc3Ni45MjE5Ii8+PHRleHQgZmlsbD0iIzAwMDAwMCIgZm9udC1mYW1pbHk9InNhbnMtc2VyaWYiIGZvbnQtc2l6ZT0iMTQiIGxlbmd0aEFkanVzdD0ic3BhY2luZyIgdGV4dExlbmd0aD0iOTgiIHg9IjcyNSIgeT0iNzk3LjE1NjMiPiYjMjUxMDQ7JiMzODI3MTsmIzIwNTQwOyYjMjYxMjY7JiMzMjQ1NDsmIzI2MzgxOyYjMjExNTM7PC90ZXh0PjxyZWN0IGZpbGw9IiNFMkUyRjAiIGhlaWdodD0iMjguOTg0NCIgcng9IjIuNSIgcnk9IjIuNSIgc3R5bGU9InN0cm9rZTojMTgxODE4O3N0cm9rZS13aWR0aDowLjU7IiB3aWR0aD0iOTgiIHg9Ijg0MCIgeT0iNTAiLz48dGV4dCBmaWxsPSIjMDAwMDAwIiBmb250LWZhbWlseT0ic2Fucy1zZXJpZiIgZm9udC1zaXplPSIxNCIgbGVuZ3RoQWRqdXN0PSJzcGFjaW5nIiB0ZXh0TGVuZ3RoPSI4NCIgeD0iODQ3IiB5PSI3MC4yMzQ0Ij4mIzMxMjE1OyYjMjA5OTg7JiMyNjEyNjsmIzMyNDU0OyYjMjYzODE7JiMyMTE1Mzs8L3RleHQ+PHJlY3QgZmlsbD0iI0UyRTJGMCIgaGVpZ2h0PSIyOC45ODQ0IiByeD0iMi41IiByeT0iMi41IiBzdHlsZT0ic3Ryb2tlOiMxODE4MTg7c3Ryb2tlLXdpZHRoOjAuNTsiIHdpZHRoPSI5OCIgeD0iODQwIiB5PSI3NzYuOTIxOSIvPjx0ZXh0IGZpbGw9IiMwMDAwMDAiIGZvbnQtZmFtaWx5PSJzYW5zLXNlcmlmIiBmb250LXNpemU9IjE0IiBsZW5ndGhBZGp1c3Q9InNwYWNpbmciIHRleHRMZW5ndGg9Ijg0IiB4PSI4NDciIHk9Ijc5Ny4xNTYzIj4mIzMxMjE1OyYjMjA5OTg7JiMyNjEyNjsmIzMyNDU0OyYjMjYzODE7JiMyMTE1Mzs8L3RleHQ+PHJlY3QgZmlsbD0iI0UyRTJGMCIgaGVpZ2h0PSIyOC45ODQ0IiByeD0iMi41IiByeT0iMi41IiBzdHlsZT0ic3Ryb2tlOiMxODE4MTg7c3Ryb2tlLXdpZHRoOjAuNTsiIHdpZHRoPSI3MCIgeD0iOTQ4IiB5PSI1MCIvPjx0ZXh0IGZpbGw9IiMwMDAwMDAiIGZvbnQtZmFtaWx5PSJzYW5zLXNlcmlmIiBmb250LXNpemU9IjE0IiBsZW5ndGhBZGp1c3Q9InNwYWNpbmciIHRleHRMZW5ndGg9IjU2IiB4PSI5NTUiIHk9IjcwLjIzNDQiPiYjMjAwMjc7JiMzNDkyMDsmIzI2MzgxOyYjMjExNTM7PC90ZXh0PjxyZWN0IGZpbGw9IiNFMkUyRjAiIGhlaWdodD0iMjguOTg0NCIgcng9IjIuNSIgcnk9IjIuNSIgc3R5bGU9InN0cm9rZTojMTgxODE4O3N0cm9rZS13aWR0aDowLjU7IiB3aWR0aD0iNzAiIHg9Ijk0OCIgeT0iNzc2LjkyMTkiLz48dGV4dCBmaWxsPSIjMDAwMDAwIiBmb250LWZhbWlseT0ic2Fucy1zZXJpZiIgZm9udC1zaXplPSIxNCIgbGVuZ3RoQWRqdXN0PSJzcGFjaW5nIiB0ZXh0TGVuZ3RoPSI1NiIgeD0iOTU1IiB5PSI3OTcuMTU2MyI+JiMyMDAyNzsmIzM0OTIwOyYjMjYzODE7JiMyMTE1Mzs8L3RleHQ+PHBvbHlnb24gZmlsbD0iIzE4MTgxOCIgcG9pbnRzPSIxMjgsMTA1Ljg5ODQsMTM4LDEwOS44OTg0LDEyOCwxMTMuODk4NCwxMzIsMTA5Ljg5ODQiIHN0eWxlPSJzdHJva2U6IzE4MTgxODtzdHJva2Utd2lkdGg6MS4wOyIvPjxsaW5lIHN0eWxlPSJzdHJva2U6IzE4MTgxODtzdHJva2Utd2lkdGg6MS4wOyIgeDE9IjM2IiB4Mj0iMTM0IiB5MT0iMTA5Ljg5ODQiIHkyPSIxMDkuODk4NCIvPjx0ZXh0IGZpbGw9IiMwMDAwMDAiIGZvbnQtZmFtaWx5PSJzYW5zLXNlcmlmIiBmb250LXNpemU9IjEzIiBsZW5ndGhBZGp1c3Q9InNwYWNpbmciIHRleHRMZW5ndGg9IjUyIiB4PSI0MyIgeT0iMTA2LjI3MzQiPiYjMzUzMDI7JiMyMTQ1NzsmIzIwMTA3OyYjMjAyMTQ7PC90ZXh0Pjxwb2x5Z29uIGZpbGw9IiMxODE4MTgiIHBvaW50cz0iMjM2LDEzMy44MTI1LDI0NiwxMzcuODEyNSwyMzYsMTQxLjgxMjUsMjQwLDEzNy44MTI1IiBzdHlsZT0ic3Ryb2tlOiMxODE4MTg7c3Ryb2tlLXdpZHRoOjEuMDsiLz48bGluZSBzdHlsZT0ic3Ryb2tlOiMxODE4MTg7c3Ryb2tlLXdpZHRoOjEuMDsiIHgxPSIxNDAiIHgyPSIyNDIiIHkxPSIxMzcuODEyNSIgeTI9IjEzNy44MTI1Ii8+PHRleHQgZmlsbD0iIzAwMDAwMCIgZm9udC1mYW1pbHk9InNhbnMtc2VyaWYiIGZvbnQtc2l6ZT0iMTMiIGxlbmd0aEFkanVzdD0ic3BhY2luZyIgdGV4dExlbmd0aD0iNzgiIHg9IjE0NyIgeT0iMTM0LjE4NzUiPiYjMjE0NTc7JiMzNjg2NTsmIzIwMTA3OyYjMjAyMTQ7JiMyODA0MDsmIzI0Njg3OzwvdGV4dD48cG9seWdvbiBmaWxsPSIjMTgxODE4IiBwb2ludHM9IjM1MSwxNjEuNzI2NiwzNjEsMTY1LjcyNjYsMzUxLDE2OS43MjY2LDM1NSwxNjUuNzI2NiIgc3R5bGU9InN0cm9rZTojMTgxODE4O3N0cm9rZS13aWR0aDoxLjA7Ii8+PGxpbmUgc3R5bGU9InN0cm9rZTojMTgxODE4O3N0cm9rZS13aWR0aDoxLjA7IiB4MT0iMjQ4IiB4Mj0iMzU3IiB5MT0iMTY1LjcyNjYiIHkyPSIxNjUuNzI2NiIvPjx0ZXh0IGZpbGw9IiMwMDAwMDAiIGZvbnQtZmFtaWx5PSJzYW5zLXNlcmlmIiBmb250LXNpemU9IjEzIiBsZW5ndGhBZGp1c3Q9InNwYWNpbmciIHRleHRMZW5ndGg9IjkxIiB4PSIyNTUiIHk9IjE2Mi4xMDE2Ij4mIzI1NTA5OyYjMjU5MTA7JiMyODA0MDsmIzI0Njg3OyYjMjQxODI7JiMyMDk5ODsmIzIxNDU3OzwvdGV4dD48cG9seWdvbiBmaWxsPSIjMTgxODE4IiBwb2ludHM9IjQ1MywxODkuNjQwNiw0NjMsMTkzLjY0MDYsNDUzLDE5Ny42NDA2LDQ1NywxOTMuNjQwNiIgc3R5bGU9InN0cm9rZTojMTgxODE4O3N0cm9rZS13aWR0aDoxLjA7Ii8+PGxpbmUgc3R5bGU9InN0cm9rZTojMTgxODE4O3N0cm9rZS13aWR0aDoxLjA7IiB4MT0iMzYzIiB4Mj0iNDU5IiB5MT0iMTkzLjY0MDYiIHkyPSIxOTMuNjQwNiIvPjx0ZXh0IGZpbGw9IiMwMDAwMDAiIGZvbnQtZmFtaWx5PSJzYW5zLXNlcmlmIiBmb250LXNpemU9IjEzIiBsZW5ndGhBZGp1c3Q9InNwYWNpbmciIHRleHRMZW5ndGg9Ijc4IiB4PSIzNzAiIHk9IjE5MC4wMTU2Ij4mIzIwOTk4OyYjMjE0NTc7JiMyMDg1NTsmIzIwMzA3OyYjMjAxMDc7JiMyMDIxNDs8L3RleHQ+PHBvbHlnb24gZmlsbD0iIzE4MTgxOCIgcG9pbnRzPSI1ODEsMjE3LjU1NDcsNTkxLDIyMS41NTQ3LDU4MSwyMjUuNTU0Nyw1ODUsMjIxLjU1NDciIHN0eWxlPSJzdHJva2U6IzE4MTgxODtzdHJva2Utd2lkdGg6MS4wOyIvPjxsaW5lIHN0eWxlPSJzdHJva2U6IzE4MTgxODtzdHJva2Utd2lkdGg6MS4wOyIgeDE9IjQ2NSIgeDI9IjU4NyIgeTE9IjIyMS41NTQ3IiB5Mj0iMjIxLjU1NDciLz48dGV4dCBmaWxsPSIjMDAwMDAwIiBmb250LWZhbWlseT0ic2Fucy1zZXJpZiIgZm9udC1zaXplPSIxMyIgbGVuZ3RoQWRqdXN0PSJzcGFjaW5nIiB0ZXh0TGVuZ3RoPSIxMDQiIHg9IjQ3MiIgeT0iMjE3LjkyOTciPiYjMjY4MTY7JiMyNjU5NzsmIzIwMTA3OyYjMjAyMTQ7JiMyNjE1OTsmIzIxNTQyOyYjMzczMjU7JiMyMjc5Nzs8L3RleHQ+PHBvbHlnb24gZmlsbD0iIzE4MTgxOCIgcG9pbnRzPSI0NzYsMjQ1LjQ2ODgsNDY2LDI0OS40Njg4LDQ3NiwyNTMuNDY4OCw0NzIsMjQ5LjQ2ODgiIHN0eWxlPSJzdHJva2U6IzE4MTgxODtzdHJva2Utd2lkdGg6MS4wOyIvPjxsaW5lIHN0eWxlPSJzdHJva2U6IzE4MTgxODtzdHJva2Utd2lkdGg6MS4wOyIgeDE9IjQ3MCIgeDI9IjU5MiIgeTE9IjI0OS40Njg4IiB5Mj0iMjQ5LjQ2ODgiLz48dGV4dCBmaWxsPSIjMDAwMDAwIiBmb250LWZhbWlseT0ic2Fucy1zZXJpZiIgZm9udC1zaXplPSIxMyIgbGVuZ3RoQWRqdXN0PSJzcGFjaW5nIiB0ZXh0TGVuZ3RoPSI3OCIgeD0iNDgyIiB5PSIyNDUuODQzOCI+JiMzNjgyMDsmIzIyMjM4OyYjMjY4MTY7JiMyNjU5NzsmIzMyNDY3OyYjMjY1MjQ7PC90ZXh0PjxwYXRoIGQ9Ik0xNzMsMjY0LjQ2ODggTDIzNywyNjQuNDY4OCBMMjM3LDI3MC4zODI4IEwyMjcsMjgwLjM4MjggTDE3MywyODAuMzgyOCBMMTczLDI2NC40Njg4ICIgZmlsbD0iI0VFRUVFRSIgc3R5bGU9InN0cm9rZTojMDAwMDAwO3N0cm9rZS13aWR0aDoxLjU7Ii8+PHJlY3QgZmlsbD0ibm9uZSIgaGVpZ2h0PSI0NjguNTM5MSIgc3R5bGU9InN0cm9rZTojMDAwMDAwO3N0cm9rZS13aWR0aDoxLjU7IiB3aWR0aD0iODc1IiB4PSIxNzMiIHk9IjI2NC40Njg4Ii8+PHRleHQgZmlsbD0iIzAwMDAwMCIgZm9udC1mYW1pbHk9InNhbnMtc2VyaWYiIGZvbnQtc2l6ZT0iMTMiIGZvbnQtd2VpZ2h0PSJib2xkIiBsZW5ndGhBZGp1c3Q9InNwYWNpbmciIHRleHRMZW5ndGg9IjE5IiB4PSIxODgiIHk9IjI3Ny43NTc4Ij5hbHQ8L3RleHQ+PHRleHQgZmlsbD0iIzAwMDAwMCIgZm9udC1mYW1pbHk9InNhbnMtc2VyaWYiIGZvbnQtc2l6ZT0iMTEiIGZvbnQtd2VpZ2h0PSJib2xkIiBsZW5ndGhBZGp1c3Q9InNwYWNpbmciIHRleHRMZW5ndGg9IjY3IiB4PSIyNTIiIHk9IjI3Ni44NjcyIj5bJiMzODc1MDsmIzM3MzI1OyYjMjI3OTc7JiMyMDEwNzsmIzIwMjE0O108L3RleHQ+PHBvbHlnb24gZmlsbD0iIzE4MTgxOCIgcG9pbnRzPSI2NjEsMjk2LjI5NjksNjcxLDMwMC4yOTY5LDY2MSwzMDQuMjk2OSw2NjUsMzAwLjI5NjkiIHN0eWxlPSJzdHJva2U6IzE4MTgxODtzdHJva2Utd2lkdGg6MS4wOyIvPjxsaW5lIHN0eWxlPSJzdHJva2U6IzE4MTgxODtzdHJva2Utd2lkdGg6MS4wOyIgeDE9IjQ2NSIgeDI9IjY2NyIgeTE9IjMwMC4yOTY5IiB5Mj0iMzAwLjI5NjkiLz48dGV4dCBmaWxsPSIjMDAwMDAwIiBmb250LWZhbWlseT0ic2Fucy1zZXJpZiIgZm9udC1zaXplPSIxMyIgbGVuZ3RoQWRqdXN0PSJzcGFjaW5nIiB0ZXh0TGVuZ3RoPSI3OCIgeD0iNDcyIiB5PSIyOTYuNjcxOSI+JiMzMzcxOTsmIzIxNDYyOyYjMjI3ODg7JiMyOTcwMjsmIzMxNTc0OyYjMzAwNTM7PC90ZXh0Pjxwb2x5Z29uIGZpbGw9IiMxODE4MTgiIHBvaW50cz0iNDc2LDMyNC4yMTA5LDQ2NiwzMjguMjEwOSw0NzYsMzMyLjIxMDksNDcyLDMyOC4yMTA5IiBzdHlsZT0ic3Ryb2tlOiMxODE4MTg7c3Ryb2tlLXdpZHRoOjEuMDsiLz48bGluZSBzdHlsZT0ic3Ryb2tlOiMxODE4MTg7c3Ryb2tlLXdpZHRoOjEuMDsiIHgxPSI0NzAiIHgyPSI2NzIiIHkxPSIzMjguMjEwOSIgeTI9IjMyOC4yMTA5Ii8+PHRleHQgZmlsbD0iIzAwMDAwMCIgZm9udC1mYW1pbHk9InNhbnMtc2VyaWYiIGZvbnQtc2l6ZT0iMTMiIGxlbmd0aEFkanVzdD0ic3BhY2luZyIgdGV4dExlbmd0aD0iNzgiIHg9IjQ4MiIgeT0iMzI0LjU4NTkiPiYjMzY4MjA7JiMyMjIzODsmIzIyNzg4OyYjMjk3MDI7JiMzMTU3NDsmIzMwMDUzOzwvdGV4dD48cG9seWdvbiBmaWxsPSIjMTgxODE4IiBwb2ludHM9Ijc2MiwzNTIuMTI1LDc3MiwzNTYuMTI1LDc2MiwzNjAuMTI1LDc2NiwzNTYuMTI1IiBzdHlsZT0ic3Ryb2tlOiMxODE4MTg7c3Ryb2tlLXdpZHRoOjEuMDsiLz48bGluZSBzdHlsZT0ic3Ryb2tlOiMxODE4MTg7c3Ryb2tlLXdpZHRoOjEuMDsiIHgxPSI0NjUiIHgyPSI3NjgiIHkxPSIzNTYuMTI1IiB5Mj0iMzU2LjEyNSIvPjx0ZXh0IGZpbGw9IiMwMDAwMDAiIGZvbnQtZmFtaWx5PSJzYW5zLXNlcmlmIiBmb250LXNpemU9IjEzIiBsZW5ndGhBZGp1c3Q9InNwYWNpbmciIHRleHRMZW5ndGg9IjkxIiB4PSI0NzIiIHk9IjM1Mi41Ij4mIzI2MzU2OyYjMjYwMzI7JiMyNTEwNDsmIzM4MjcxOyYjMjA1NDA7JiMyNjEyNjsmIzMyNDU0OzwvdGV4dD48cG9seWdvbiBmaWxsPSIjMTgxODE4IiBwb2ludHM9Ijg3NywzODAuMDM5MSw4ODcsMzg0LjAzOTEsODc3LDM4OC4wMzkxLDg4MSwzODQuMDM5MSIgc3R5bGU9InN0cm9rZTojMTgxODE4O3N0cm9rZS13aWR0aDoxLjA7Ii8+PGxpbmUgc3R5bGU9InN0cm9rZTojMTgxODE4O3N0cm9rZS13aWR0aDoxLjA7IiB4MT0iNDY1IiB4Mj0iODgzIiB5MT0iMzg0LjAzOTEiIHkyPSIzODQuMDM5MSIvPjx0ZXh0IGZpbGw9IiMwMDAwMDAiIGZvbnQtZmFtaWx5PSJzYW5zLXNlcmlmIiBmb250LXNpemU9IjEzIiBsZW5ndGhBZGp1c3Q9InNwYWNpbmciIHRleHRMZW5ndGg9Ijc4IiB4PSI0NzIiIHk9IjM4MC40MTQxIj4mIzI2MzU2OyYjMjYwMzI7JiMzMTIxNTsmIzIwOTk4OyYjMjYxMjY7JiMzMjQ1NDs8L3RleHQ+PHBvbHlnb24gZmlsbD0iIzE4MTgxOCIgcG9pbnRzPSI5NzEsNDA3Ljk1MzEsOTgxLDQxMS45NTMxLDk3MSw0MTUuOTUzMSw5NzUsNDExLjk1MzEiIHN0eWxlPSJzdHJva2U6IzE4MTgxODtzdHJva2Utd2lkdGg6MS4wOyIvPjxsaW5lIHN0eWxlPSJzdHJva2U6IzE4MTgxODtzdHJva2Utd2lkdGg6MS4wOyIgeDE9IjQ2NSIgeDI9Ijk3NyIgeTE9IjQxMS45NTMxIiB5Mj0iNDExLjk1MzEiLz48dGV4dCBmaWxsPSIjMDAwMDAwIiBmb250LWZhbWlseT0ic2Fucy1zZXJpZiIgZm9udC1zaXplPSIxMyIgbGVuZ3RoQWRqdXN0PSJzcGFjaW5nIiB0ZXh0TGVuZ3RoPSI3OCIgeD0iNDcyIiB5PSI0MDguMzI4MSI+JiMyNjM1NjsmIzI2MDMyOyYjMjAyNTA7JiMyMTU5MjsmIzIwMDI3OyYjMzQ5MjA7PC90ZXh0PjxwYXRoIGQ9Ik0xODMsNDI2Ljk1MzEgTDI0Nyw0MjYuOTUzMSBMMjQ3LDQzMi44NjcyIEwyMzcsNDQyLjg2NzIgTDE4Myw0NDIuODY3MiBMMTgzLDQyNi45NTMxICIgZmlsbD0iI0VFRUVFRSIgc3R5bGU9InN0cm9rZTojMDAwMDAwO3N0cm9rZS13aWR0aDoxLjU7Ii8+PHJlY3QgZmlsbD0ibm9uZSIgaGVpZ2h0PSIyOTkuMDU0NyIgc3R5bGU9InN0cm9rZTojMDAwMDAwO3N0cm9rZS13aWR0aDoxLjU7IiB3aWR0aD0iODU1IiB4PSIxODMiIHk9IjQyNi45NTMxIi8+PHRleHQgZmlsbD0iIzAwMDAwMCIgZm9udC1mYW1pbHk9InNhbnMtc2VyaWYiIGZvbnQtc2l6ZT0iMTMiIGZvbnQtd2VpZ2h0PSJib2xkIiBsZW5ndGhBZGp1c3Q9InNwYWNpbmciIHRleHRMZW5ndGg9IjE5IiB4PSIxOTgiIHk9IjQ0MC4yNDIyIj5hbHQ8L3RleHQ+PHRleHQgZmlsbD0iIzAwMDAwMCIgZm9udC1mYW1pbHk9InNhbnMtc2VyaWYiIGZvbnQtc2l6ZT0iMTEiIGZvbnQtd2VpZ2h0PSJib2xkIiBsZW5ndGhBZGp1c3Q9InNwYWNpbmciIHRleHRMZW5ndGg9IjU2IiB4PSIyNjIiIHk9IjQzOS4zNTE2Ij5bJiMyMTMxOTsmIzMyNDIzOyYjMjAxMDc7JiMyMDIxNDtdPC90ZXh0PjxwYXRoIGQ9Ik0xOTMsNDQ5Ljg2NzIgTDI2NSw0NDkuODY3MiBMMjY1LDQ1NS43ODEzIEwyNTUsNDY1Ljc4MTMgTDE5Myw0NjUuNzgxMyBMMTkzLDQ0OS44NjcyICIgZmlsbD0iI0VFRUVFRSIgc3R5bGU9InN0cm9rZTojMDAwMDAwO3N0cm9rZS13aWR0aDoxLjU7Ii8+PHJlY3QgZmlsbD0ibm9uZSIgaGVpZ2h0PSIyNjkuMTQwNiIgc3R5bGU9InN0cm9rZTojMDAwMDAwO3N0cm9rZS13aWR0aDoxLjU7IiB3aWR0aD0iODM1IiB4PSIxOTMiIHk9IjQ0OS44NjcyIi8+PHRleHQgZmlsbD0iIzAwMDAwMCIgZm9udC1mYW1pbHk9InNhbnMtc2VyaWYiIGZvbnQtc2l6ZT0iMTMiIGZvbnQtd2VpZ2h0PSJib2xkIiBsZW5ndGhBZGp1c3Q9InNwYWNpbmciIHRleHRMZW5ndGg9IjI3IiB4PSIyMDgiIHk9IjQ2My4xNTYzIj5sb29wPC90ZXh0Pjx0ZXh0IGZpbGw9IiMwMDAwMDAiIGZvbnQtZmFtaWx5PSJzYW5zLXNlcmlmIiBmb250LXNpemU9IjExIiBmb250LXdlaWdodD0iYm9sZCIgbGVuZ3RoQWRqdXN0PSJzcGFjaW5nIiB0ZXh0TGVuZ3RoPSI1NiIgeD0iMjgwIiB5PSI0NjIuMjY1NiI+WyYjMzY4MzA7JiMzMjQ5MzsmIzIxMzE5OyYjMzI0MjM7XTwvdGV4dD48cG9seWdvbiBmaWxsPSIjMTgxODE4IiBwb2ludHM9Ijc2Miw0ODEuNjk1Myw3NzIsNDg1LjY5NTMsNzYyLDQ4OS42OTUzLDc2Niw0ODUuNjk1MyIgc3R5bGU9InN0cm9rZTojMTgxODE4O3N0cm9rZS13aWR0aDoxLjA7Ii8+PGxpbmUgc3R5bGU9InN0cm9rZTojMTgxODE4O3N0cm9rZS13aWR0aDoxLjA7IiB4MT0iNDY1IiB4Mj0iNzY4IiB5MT0iNDg1LjY5NTMiIHkyPSI0ODUuNjk1MyIvPjx0ZXh0IGZpbGw9IiMwMDAwMDAiIGZvbnQtZmFtaWx5PSJzYW5zLXNlcmlmIiBmb250LXNpemU9IjEzIiBsZW5ndGhBZGp1c3Q9InNwYWNpbmciIHRleHRMZW5ndGg9IjkxIiB4PSI0NzIiIHk9IjQ4Mi4wNzAzIj4mIzI2MzU2OyYjMjYwMzI7JiMyNTEwNDsmIzM4MjcxOyYjMjA1NDA7JiMyNjEyNjsmIzMyNDU0OzwvdGV4dD48cG9seWdvbiBmaWxsPSIjMTgxODE4IiBwb2ludHM9Ijg3Nyw1MDkuNjA5NCw4ODcsNTEzLjYwOTQsODc3LDUxNy42MDk0LDg4MSw1MTMuNjA5NCIgc3R5bGU9InN0cm9rZTojMTgxODE4O3N0cm9rZS13aWR0aDoxLjA7Ii8+PGxpbmUgc3R5bGU9InN0cm9rZTojMTgxODE4O3N0cm9rZS13aWR0aDoxLjA7IiB4MT0iNDY1IiB4Mj0iODgzIiB5MT0iNTEzLjYwOTQiIHkyPSI1MTMuNjA5NCIvPjx0ZXh0IGZpbGw9IiMwMDAwMDAiIGZvbnQtZmFtaWx5PSJzYW5zLXNlcmlmIiBmb250LXNpemU9IjEzIiBsZW5ndGhBZGp1c3Q9InNwYWNpbmciIHRleHRMZW5ndGg9Ijc4IiB4PSI0NzIiIHk9IjUwOS45ODQ0Ij4mIzI2MzU2OyYjMjYwMzI7JiMzMTIxNTsmIzIwOTk4OyYjMjYxMjY7JiMzMjQ1NDs8L3RleHQ+PHBvbHlnb24gZmlsbD0iIzE4MTgxOCIgcG9pbnRzPSI5NzEsNTM3LjUyMzQsOTgxLDU0MS41MjM0LDk3MSw1NDUuNTIzNCw5NzUsNTQxLjUyMzQiIHN0eWxlPSJzdHJva2U6IzE4MTgxODtzdHJva2Utd2lkdGg6MS4wOyIvPjxsaW5lIHN0eWxlPSJzdHJva2U6IzE4MTgxODtzdHJva2Utd2lkdGg6MS4wOyIgeDE9IjQ2NSIgeDI9Ijk3NyIgeTE9IjU0MS41MjM0IiB5Mj0iNTQxLjUyMzQiLz48dGV4dCBmaWxsPSIjMDAwMDAwIiBmb250LWZhbWlseT0ic2Fucy1zZXJpZiIgZm9udC1zaXplPSIxMyIgbGVuZ3RoQWRqdXN0PSJzcGFjaW5nIiB0ZXh0TGVuZ3RoPSI3OCIgeD0iNDcyIiB5PSI1MzcuODk4NCI+JiMyNjM1NjsmIzI2MDMyOyYjMjAyNTA7JiMyMTU5MjsmIzIwMDI3OyYjMzQ5MjA7PC90ZXh0Pjxwb2x5Z29uIGZpbGw9IiMxODE4MTgiIHBvaW50cz0iNjYxLDU2NS40Mzc1LDY3MSw1NjkuNDM3NSw2NjEsNTczLjQzNzUsNjY1LDU2OS40Mzc1IiBzdHlsZT0ic3Ryb2tlOiMxODE4MTg7c3Ryb2tlLXdpZHRoOjEuMDsiLz48bGluZSBzdHlsZT0ic3Ryb2tlOiMxODE4MTg7c3Ryb2tlLXdpZHRoOjEuMDsiIHgxPSI0NjUiIHgyPSI2NjciIHkxPSI1NjkuNDM3NSIgeTI9IjU2OS40Mzc1Ii8+PHRleHQgZmlsbD0iIzAwMDAwMCIgZm9udC1mYW1pbHk9InNhbnMtc2VyaWYiIGZvbnQtc2l6ZT0iMTMiIGxlbmd0aEFkanVzdD0ic3BhY2luZyIgdGV4dExlbmd0aD0iNzgiIHg9IjQ3MiIgeT0iNTY1LjgxMjUiPiYjMzM3MTk7JiMyMTQ2MjsmIzIyNzg4OyYjMjk3MDI7JiMzMTU3NDsmIzMwMDUzOzwvdGV4dD48cG9seWdvbiBmaWxsPSIjMTgxODE4IiBwb2ludHM9IjQ3Niw1OTMuMzUxNiw0NjYsNTk3LjM1MTYsNDc2LDYwMS4zNTE2LDQ3Miw1OTcuMzUxNiIgc3R5bGU9InN0cm9rZTojMTgxODE4O3N0cm9rZS13aWR0aDoxLjA7Ii8+PGxpbmUgc3R5bGU9InN0cm9rZTojMTgxODE4O3N0cm9rZS13aWR0aDoxLjA7IiB4MT0iNDcwIiB4Mj0iNjcyIiB5MT0iNTk3LjM1MTYiIHkyPSI1OTcuMzUxNiIvPjx0ZXh0IGZpbGw9IiMwMDAwMDAiIGZvbnQtZmFtaWx5PSJzYW5zLXNlcmlmIiBmb250LXNpemU9IjEzIiBsZW5ndGhBZGp1c3Q9InNwYWNpbmciIHRleHRMZW5ndGg9Ijc4IiB4PSI0ODIiIHk9IjU5My43MjY2Ij4mIzM2ODIwOyYjMjIyMzg7JiMyMjc4ODsmIzI5NzAyOyYjMzE1NzQ7JiMzMDA1Mzs8L3RleHQ+PHBhdGggZD0iTTIwMyw2MTIuMzUxNiBMMjY3LDYxMi4zNTE2IEwyNjcsNjE4LjI2NTYgTDI1Nyw2MjguMjY1NiBMMjAzLDYyOC4yNjU2IEwyMDMsNjEyLjM1MTYgIiBmaWxsPSIjRUVFRUVFIiBzdHlsZT0ic3Ryb2tlOiMwMDAwMDA7c3Ryb2tlLXdpZHRoOjEuNTsiLz48cmVjdCBmaWxsPSJub25lIiBoZWlnaHQ9Ijk5LjY1NjMiIHN0eWxlPSJzdHJva2U6IzAwMDAwMDtzdHJva2Utd2lkdGg6MS41OyIgd2lkdGg9IjMxNCIgeD0iMjAzIiB5PSI2MTIuMzUxNiIvPjx0ZXh0IGZpbGw9IiMwMDAwMDAiIGZvbnQtZmFtaWx5PSJzYW5zLXNlcmlmIiBmb250LXNpemU9IjEzIiBmb250LXdlaWdodD0iYm9sZCIgbGVuZ3RoQWRqdXN0PSJzcGFjaW5nIiB0ZXh0TGVuZ3RoPSIxOSIgeD0iMjE4IiB5PSI2MjUuNjQwNiI+YWx0PC90ZXh0Pjx0ZXh0IGZpbGw9IiMwMDAwMDAiIGZvbnQtZmFtaWx5PSJzYW5zLXNlcmlmIiBmb250LXNpemU9IjExIiBmb250LXdlaWdodD0iYm9sZCIgbGVuZ3RoQWRqdXN0PSJzcGFjaW5nIiB0ZXh0TGVuZ3RoPSI3OCIgeD0iMjgyIiB5PSI2MjQuNzUiPlsmIzM2Nzk4OyYjMjEwNDA7JiMxOTk3OTsmIzE5OTY4OyYjMzI0MjM7JiMyMTAzNTtdPC90ZXh0Pjxwb2x5Z29uIGZpbGw9IiMxODE4MTgiIHBvaW50cz0iMjU5LDY0NC4xNzk3LDI0OSw2NDguMTc5NywyNTksNjUyLjE3OTcsMjU1LDY0OC4xNzk3IiBzdHlsZT0ic3Ryb2tlOiMxODE4MTg7c3Ryb2tlLXdpZHRoOjEuMDsiLz48bGluZSBzdHlsZT0ic3Ryb2tlOiMxODE4MTg7c3Ryb2tlLXdpZHRoOjEuMDsiIHgxPSIyNTMiIHgyPSI0NjQiIHkxPSI2NDguMTc5NyIgeTI9IjY0OC4xNzk3Ii8+PHRleHQgZmlsbD0iIzAwMDAwMCIgZm9udC1mYW1pbHk9InNhbnMtc2VyaWYiIGZvbnQtc2l6ZT0iMTMiIGxlbmd0aEFkanVzdD0ic3BhY2luZyIgdGV4dExlbmd0aD0iNzgiIHg9IjI2NSIgeT0iNjQ0LjU1NDciPiYjMjE0NTc7JiMzNjg2NTsmIzIxMzE5OyYjMzI0MjM7JiMyODA0MDsmIzI0Njg3OzwvdGV4dD48cG9seWdvbiBmaWxsPSIjMTgxODE4IiBwb2ludHM9IjM1MSw2NzIuMDkzOCwzNjEsNjc2LjA5MzgsMzUxLDY4MC4wOTM4LDM1NSw2NzYuMDkzOCIgc3R5bGU9InN0cm9rZTojMTgxODE4O3N0cm9rZS13aWR0aDoxLjA7Ii8+PGxpbmUgc3R5bGU9InN0cm9rZTojMTgxODE4O3N0cm9rZS13aWR0aDoxLjA7IiB4MT0iMjQ4IiB4Mj0iMzU3IiB5MT0iNjc2LjA5MzgiIHkyPSI2NzYuMDkzOCIvPjx0ZXh0IGZpbGw9IiMwMDAwMDAiIGZvbnQtZmFtaWx5PSJzYW5zLXNlcmlmIiBmb250LXNpemU9IjEzIiBsZW5ndGhBZGp1c3Q9InNwYWNpbmciIHRleHRMZW5ndGg9IjkxIiB4PSIyNTUiIHk9IjY3Mi40Njg4Ij4mIzI1NTA5OyYjMjU5MTA7JiMyODA0MDsmIzI0Njg3OyYjMjQxODI7JiMyMDk5ODsmIzIxNDU3OzwvdGV4dD48cG9seWdvbiBmaWxsPSIjMTgxODE4IiBwb2ludHM9IjQ1Myw3MDAuMDA3OCw0NjMsNzA0LjAwNzgsNDUzLDcwOC4wMDc4LDQ1Nyw3MDQuMDA3OCIgc3R5bGU9InN0cm9rZTojMTgxODE4O3N0cm9rZS13aWR0aDoxLjA7Ii8+PGxpbmUgc3R5bGU9InN0cm9rZTojMTgxODE4O3N0cm9rZS13aWR0aDoxLjA7IiB4MT0iMzYzIiB4Mj0iNDU5IiB5MT0iNzA0LjAwNzgiIHkyPSI3MDQuMDA3OCIvPjx0ZXh0IGZpbGw9IiMwMDAwMDAiIGZvbnQtZmFtaWx5PSJzYW5zLXNlcmlmIiBmb250LXNpemU9IjEzIiBsZW5ndGhBZGp1c3Q9InNwYWNpbmciIHRleHRMZW5ndGg9Ijc4IiB4PSIzNzAiIHk9IjcwMC4zODI4Ij4mIzIwOTk4OyYjMjE0NTc7JiMyMDg1NTsmIzIwMzA3OyYjMjAxMDc7JiMyMDIxNDs8L3RleHQ+PHBvbHlnb24gZmlsbD0iIzE4MTgxOCIgcG9pbnRzPSIyNTksNzU1LjkyMTksMjQ5LDc1OS45MjE5LDI1OSw3NjMuOTIxOSwyNTUsNzU5LjkyMTkiIHN0eWxlPSJzdHJva2U6IzE4MTgxODtzdHJva2Utd2lkdGg6MS4wOyIvPjxsaW5lIHN0eWxlPSJzdHJva2U6IzE4MTgxODtzdHJva2Utd2lkdGg6MS4wOyIgeDE9IjI1MyIgeDI9IjQ2NCIgeTE9Ijc1OS45MjE5IiB5Mj0iNzU5LjkyMTkiLz48dGV4dCBmaWxsPSIjMDAwMDAwIiBmb250LWZhbWlseT0ic2Fucy1zZXJpZiIgZm9udC1zaXplPSIxMyIgbGVuZ3RoQWRqdXN0PSJzcGFjaW5nIiB0ZXh0TGVuZ3RoPSI3OCIgeD0iMjY1IiB5PSI3NTYuMjk2OSI+JiMyMTQ1NzsmIzM2ODY1OyYjMzI0Njc7JiMyNjUyNDsmIzI4MDQwOyYjMjQ2ODc7PC90ZXh0PjwhLS1TUkM9W2hMSFJRaTkwNUZzVkxNRzN0SzBfa2ZUVy1vNjhZY0cxaVJJUUxrODM3cXNoWktYekdINjU1Yi1ua2ZkQ0pCQUJwY0g2Y3ViOUtFYzA2M1lGVS0gLVBveVc5OVBFSnhDcVJoMWN1Q0tSUTBjSmJkOTlDOUJEb01rNjBsSXhQclhwczd0MnJXQnlpUjdLNTRmZmhBM3pyWkl4S05hR3Jxc2E1TUFkMXJ0NE92ZGE2Q1JZd252Q2RyRDdYU3F5MHlBSTVjdUNHMDZiTGp4YzN3V09QUE1tTG1nSVpBTWFhNGhRTmJqQ1JTbTN1eXYya1JZOVphQXViUHBHYXFwNDhIRkE4WHB5YmVZQ1lMeXFwQWVFMG1BMUxuVlk4MjlLN2dDN2ZTQ0tYNEVKeklWVmZxZGVDVmJwT0Z0TlVCR1lvWUQwVkZJdHVlUUJrVzdUZko2NXJ3MVByc0RVMW0waWp3RW1RaTZxbzBzcExhVGExU2FnSHQ3VUpNVjBjOTc5Mi1sM1ZEM0toQnMyYm5JRnI4NHllaTZBd0UxQTZMMG5UOEhmMS1ua3JQVzRxaWtzWkJKaXUtQTRla055QjNxQS1MMXhhMk1jQ0syX1l6U1lOOEpzZkoyUEI5WlFuRE03dTBWY3RjTUZDcGZhem5rUXEzRUJ3RTZicnprVlk1VGVWVVhsRVRXa3JjUnFpc0trTG4wd3JKdTRJYk54T1l5MGtaaHk4R1BEQk51WThQaXYtQ1ZtVVQtYlI0Rm9jX19IdHdoM2lOTTNHQm0wMF0tLT48L2c+PC9zdmc+;" vertex="1" parent="1">
            <mxGeometry x="-750" y="280" width="1054" height="857" as="geometry" />
          </mxCell>
        </UserObject>
        <UserObject label="" plantUmlData="{&#xa;  &quot;data&quot;: &quot;@startuml\nstart\n:会员用户触发事件;\n:发送事件消息到消息队列;\n:消息队列传递消息给事件分发器;\n:事件分发器分发事件到事件处理器;\n:事件处理器处理事件;\n\nif (事件是否重复?) then (是)\n    :返回;\nelse (否)\n    :检查处理策略;\n    :调用成长值明细服务更新成长值;\n    :调用积分明细服务更新积分;\n    :调用主表服务更新会员主表;\n\n    if (是否为升级事件?) then (是)\n        while (升级周期)\n            :更新成长值明细;\n            :更新积分明细;\n            :更新会员主表;\n            :检查下一处理策略;\n            if (是否达到新等级?) then (是)\n                :发送升级消息到消息队列;\n                :事件分发器处理升级消息;\n            endif\n        endwhile\n    endif\nendif\n\n:发送处理结果消息;\nstop\n@enduml&quot;,&#xa;  &quot;format&quot;: &quot;svg&quot;&#xa;}" id="8JMTBNHWokN22WQnh1h2-9">
          <mxCell style="shape=image;noLabel=1;verticalAlign=top;aspect=fixed;imageAspect=0;image=data:image/svg+xml,PD94bWwgdmVyc2lvbj0iMS4wIiBlbmNvZGluZz0idXMtYXNjaWkiIHN0YW5kYWxvbmU9Im5vIj8+PHN2ZyB4bWxucz0iaHR0cDovL3d3dy53My5vcmcvMjAwMC9zdmciIHhtbG5zOnhsaW5rPSJodHRwOi8vd3d3LnczLm9yZy8xOTk5L3hsaW5rIiBjb250ZW50U3R5bGVUeXBlPSJ0ZXh0L2NzcyIgaGVpZ2h0PSIxMjU3cHgiIHByZXNlcnZlQXNwZWN0UmF0aW89Im5vbmUiIHN0eWxlPSJ3aWR0aDozMzlweDtoZWlnaHQ6MTI1N3B4O2JhY2tncm91bmQ6I0ZGRkZGRjsiIHZlcnNpb249IjEuMSIgdmlld0JveD0iMCAwIDMzOSAxMjU3IiB3aWR0aD0iMzM5cHgiIHpvb21BbmRQYW49Im1hZ25pZnkiPjxkZWZzLz48Zz48ZWxsaXBzZSBjeD0iMTE0IiBjeT0iMjAiIGZpbGw9IiMyMjIyMjIiIHJ4PSIxMCIgcnk9IjEwIiBzdHlsZT0ic3Ryb2tlOiMyMjIyMjI7c3Ryb2tlLXdpZHRoOjEuMDsiLz48cmVjdCBmaWxsPSIjRjFGMUYxIiBoZWlnaHQ9IjMyLjg0MzgiIHJ4PSIxMi41IiByeT0iMTIuNSIgc3R5bGU9InN0cm9rZTojMTgxODE4O3N0cm9rZS13aWR0aDowLjU7IiB3aWR0aD0iMTE2IiB4PSI1NiIgeT0iNTAiLz48dGV4dCBmaWxsPSIjMDAwMDAwIiBmb250LWZhbWlseT0ic2Fucy1zZXJpZiIgZm9udC1zaXplPSIxMiIgbGVuZ3RoQWRqdXN0PSJzcGFjaW5nIiB0ZXh0TGVuZ3RoPSI5NiIgeD0iNjYiIHk9IjcxLjM0MzgiPiYjMjAyNTA7JiMyMTU5MjsmIzI5OTkyOyYjMjUxNDM7JiMzNTMwMjsmIzIxNDU3OyYjMjAxMDc7JiMyMDIxNDs8L3RleHQ+PHJlY3QgZmlsbD0iI0YxRjFGMSIgaGVpZ2h0PSIzMi44NDM4IiByeD0iMTIuNSIgcnk9IjEyLjUiIHN0eWxlPSJzdHJva2U6IzE4MTgxODtzdHJva2Utd2lkdGg6MC41OyIgd2lkdGg9IjE1MiIgeD0iMzgiIHk9IjEwMi44NDM4Ii8+PHRleHQgZmlsbD0iIzAwMDAwMCIgZm9udC1mYW1pbHk9InNhbnMtc2VyaWYiIGZvbnQtc2l6ZT0iMTIiIGxlbmd0aEFkanVzdD0ic3BhY2luZyIgdGV4dExlbmd0aD0iMTMyIiB4PSI0OCIgeT0iMTI0LjE4NzUiPiYjMjE0NTc7JiMzNjg2NTsmIzIwMTA3OyYjMjAyMTQ7JiMyODA0MDsmIzI0Njg3OyYjMjEwNDA7JiMyODA0MDsmIzI0Njg3OyYjMzg0MzE7JiMyMTAxNTs8L3RleHQ+PHJlY3QgZmlsbD0iI0YxRjFGMSIgaGVpZ2h0PSIzMi44NDM4IiByeD0iMTIuNSIgcnk9IjEyLjUiIHN0eWxlPSJzdHJva2U6IzE4MTgxODtzdHJva2Utd2lkdGg6MC41OyIgd2lkdGg9IjE4OCIgeD0iMjAiIHk9IjE1NS42ODc1Ii8+PHRleHQgZmlsbD0iIzAwMDAwMCIgZm9udC1mYW1pbHk9InNhbnMtc2VyaWYiIGZvbnQtc2l6ZT0iMTIiIGxlbmd0aEFkanVzdD0ic3BhY2luZyIgdGV4dExlbmd0aD0iMTY4IiB4PSIzMCIgeT0iMTc3LjAzMTMiPiYjMjgwNDA7JiMyNDY4NzsmIzM4NDMxOyYjMjEwMTU7JiMyMDI1NjsmIzM2ODgyOyYjMjgwNDA7JiMyNDY4NzsmIzMyNDczOyYjMjAxMDc7JiMyMDIxNDsmIzIwOTk4OyYjMjE0NTc7JiMyMjEyMDs8L3RleHQ+PHJlY3QgZmlsbD0iI0YxRjFGMSIgaGVpZ2h0PSIzMi44NDM4IiByeD0iMTIuNSIgcnk9IjEyLjUiIHN0eWxlPSJzdHJva2U6IzE4MTgxODtzdHJva2Utd2lkdGg6MC41OyIgd2lkdGg9IjIwMCIgeD0iMTQiIHk9IjIwOC41MzEzIi8+PHRleHQgZmlsbD0iIzAwMDAwMCIgZm9udC1mYW1pbHk9InNhbnMtc2VyaWYiIGZvbnQtc2l6ZT0iMTIiIGxlbmd0aEFkanVzdD0ic3BhY2luZyIgdGV4dExlbmd0aD0iMTgwIiB4PSIyNCIgeT0iMjI5Ljg3NSI+JiMyMDEwNzsmIzIwMjE0OyYjMjA5OTg7JiMyMTQ1NzsmIzIyMTIwOyYjMjA5OTg7JiMyMTQ1NzsmIzIwMTA3OyYjMjAyMTQ7JiMyMTA0MDsmIzIwMTA3OyYjMjAyMTQ7JiMyMjc4ODsmIzI5NzAyOyYjMjIxMjA7PC90ZXh0PjxyZWN0IGZpbGw9IiNGMUYxRjEiIGhlaWdodD0iMzIuODQzOCIgcng9IjEyLjUiIHJ5PSIxMi41IiBzdHlsZT0ic3Ryb2tlOiMxODE4MTg7c3Ryb2tlLXdpZHRoOjAuNTsiIHdpZHRoPSIxMjgiIHg9IjUwIiB5PSIyNjEuMzc1Ii8+PHRleHQgZmlsbD0iIzAwMDAwMCIgZm9udC1mYW1pbHk9InNhbnMtc2VyaWYiIGZvbnQtc2l6ZT0iMTIiIGxlbmd0aEFkanVzdD0ic3BhY2luZyIgdGV4dExlbmd0aD0iMTA4IiB4PSI2MCIgeT0iMjgyLjcxODgiPiYjMjAxMDc7JiMyMDIxNDsmIzIyNzg4OyYjMjk3MDI7JiMyMjEyMDsmIzIyNzg4OyYjMjk3MDI7JiMyMDEwNzsmIzIwMjE0OzwvdGV4dD48cG9seWdvbiBmaWxsPSIjRjFGMUYxIiBwb2ludHM9Ijc4LDMxNC4yMTg4LDE1MCwzMTQuMjE4OCwxNjIsMzI2LjIxODgsMTUwLDMzOC4yMTg4LDc4LDMzOC4yMTg4LDY2LDMyNi4yMTg4LDc4LDMxNC4yMTg4IiBzdHlsZT0ic3Ryb2tlOiMxODE4MTg7c3Ryb2tlLXdpZHRoOjAuNTsiLz48dGV4dCBmaWxsPSIjMDAwMDAwIiBmb250LWZhbWlseT0ic2Fucy1zZXJpZiIgZm9udC1zaXplPSIxMSIgbGVuZ3RoQWRqdXN0PSJzcGFjaW5nIiB0ZXh0TGVuZ3RoPSI3MiIgeD0iNzgiIHk9IjMzMC43MzA1Ij4mIzIwMTA3OyYjMjAyMTQ7JiMyNjE1OTsmIzIxNTQyOyYjMzczMjU7JiMyMjc5Nzs/PC90ZXh0Pjx0ZXh0IGZpbGw9IiMwMDAwMDAiIGZvbnQtZmFtaWx5PSJzYW5zLXNlcmlmIiBmb250LXNpemU9IjExIiBsZW5ndGhBZGp1c3Q9InNwYWNpbmciIHRleHRMZW5ndGg9IjExIiB4PSI1NSIgeT0iMzI0Ljg0MzgiPiYjMjYxNTk7PC90ZXh0Pjx0ZXh0IGZpbGw9IiMwMDAwMDAiIGZvbnQtZmFtaWx5PSJzYW5zLXNlcmlmIiBmb250LXNpemU9IjExIiBsZW5ndGhBZGp1c3Q9InNwYWNpbmciIHRleHRMZW5ndGg9IjExIiB4PSIxNjIiIHk9IjMyNC44NDM4Ij4mIzIxNTQyOzwvdGV4dD48cmVjdCBmaWxsPSIjRjFGMUYxIiBoZWlnaHQ9IjMyLjg0MzgiIHJ4PSIxMi41IiByeT0iMTIuNSIgc3R5bGU9InN0cm9rZTojMTgxODE4O3N0cm9rZS13aWR0aDowLjU7IiB3aWR0aD0iNDQiIHg9IjExIiB5PSIzNDguMjE4OCIvPjx0ZXh0IGZpbGw9IiMwMDAwMDAiIGZvbnQtZmFtaWx5PSJzYW5zLXNlcmlmIiBmb250LXNpemU9IjEyIiBsZW5ndGhBZGp1c3Q9InNwYWNpbmciIHRleHRMZW5ndGg9IjI0IiB4PSIyMSIgeT0iMzY5LjU2MjUiPiYjMzY4MjA7JiMyMjIzODs8L3RleHQ+PHJlY3QgZmlsbD0iI0YxRjFGMSIgaGVpZ2h0PSIzMi44NDM4IiByeD0iMTIuNSIgcnk9IjEyLjUiIHN0eWxlPSJzdHJva2U6IzE4MTgxODtzdHJva2Utd2lkdGg6MC41OyIgd2lkdGg9IjkyIiB4PSIxNDkiIHk9IjM0OC4yMTg4Ii8+PHRleHQgZmlsbD0iIzAwMDAwMCIgZm9udC1mYW1pbHk9InNhbnMtc2VyaWYiIGZvbnQtc2l6ZT0iMTIiIGxlbmd0aEFkanVzdD0ic3BhY2luZyIgdGV4dExlbmd0aD0iNzIiIHg9IjE1OSIgeT0iMzY5LjU2MjUiPiYjMjY4MTY7JiMyNjU5NzsmIzIyNzg4OyYjMjk3MDI7JiMzMTU3NDsmIzMwMDUzOzwvdGV4dD48cmVjdCBmaWxsPSIjRjFGMUYxIiBoZWlnaHQ9IjMyLjg0MzgiIHJ4PSIxMi41IiByeT0iMTIuNSIgc3R5bGU9InN0cm9rZTojMTgxODE4O3N0cm9rZS13aWR0aDowLjU7IiB3aWR0aD0iMTg4IiB4PSIxMDEiIHk9IjQwMS4wNjI1Ii8+PHRleHQgZmlsbD0iIzAwMDAwMCIgZm9udC1mYW1pbHk9InNhbnMtc2VyaWYiIGZvbnQtc2l6ZT0iMTIiIGxlbmd0aEFkanVzdD0ic3BhY2luZyIgdGV4dExlbmd0aD0iMTY4IiB4PSIxMTEiIHk9IjQyMi40MDYzIj4mIzM1ODQzOyYjMjk5OTI7JiMyNTEwNDsmIzM4MjcxOyYjMjA1NDA7JiMyNjEyNjsmIzMyNDU0OyYjMjYzODE7JiMyMTE1MzsmIzI2MzU2OyYjMjYwMzI7JiMyNTEwNDsmIzM4MjcxOyYjMjA1NDA7PC90ZXh0PjxyZWN0IGZpbGw9IiNGMUYxRjEiIGhlaWdodD0iMzIuODQzOCIgcng9IjEyLjUiIHJ5PSIxMi41IiBzdHlsZT0ic3Ryb2tlOiMxODE4MTg7c3Ryb2tlLXdpZHRoOjAuNTsiIHdpZHRoPSIxNjQiIHg9IjExMyIgeT0iNDUzLjkwNjMiLz48dGV4dCBmaWxsPSIjMDAwMDAwIiBmb250LWZhbWlseT0ic2Fucy1zZXJpZiIgZm9udC1zaXplPSIxMiIgbGVuZ3RoQWRqdXN0PSJzcGFjaW5nIiB0ZXh0TGVuZ3RoPSIxNDQiIHg9IjEyMyIgeT0iNDc1LjI1Ij4mIzM1ODQzOyYjMjk5OTI7JiMzMTIxNTsmIzIwOTk4OyYjMjYxMjY7JiMzMjQ1NDsmIzI2MzgxOyYjMjExNTM7JiMyNjM1NjsmIzI2MDMyOyYjMzEyMTU7JiMyMDk5ODs8L3RleHQ+PHJlY3QgZmlsbD0iI0YxRjFGMSIgaGVpZ2h0PSIzMi44NDM4IiByeD0iMTIuNSIgcnk9IjEyLjUiIHN0eWxlPSJzdHJva2U6IzE4MTgxODtzdHJva2Utd2lkdGg6MC41OyIgd2lkdGg9IjE2NCIgeD0iMTEzIiB5PSI1MDYuNzUiLz48dGV4dCBmaWxsPSIjMDAwMDAwIiBmb250LWZhbWlseT0ic2Fucy1zZXJpZiIgZm9udC1zaXplPSIxMiIgbGVuZ3RoQWRqdXN0PSJzcGFjaW5nIiB0ZXh0TGVuZ3RoPSIxNDQiIHg9IjEyMyIgeT0iNTI4LjA5MzgiPiYjMzU4NDM7JiMyOTk5MjsmIzIwMDI3OyYjMzQ5MjA7JiMyNjM4MTsmIzIxMTUzOyYjMjYzNTY7JiMyNjAzMjsmIzIwMjUwOyYjMjE1OTI7JiMyMDAyNzsmIzM0OTIwOzwvdGV4dD48cmVjdCBmaWxsPSIjRjFGMUYxIiBoZWlnaHQ9IjMyLjg0MzgiIHJ4PSIxMi41IiByeT0iMTIuNSIgc3R5bGU9InN0cm9rZTojMTgxODE4O3N0cm9rZS13aWR0aDowLjU7IiB3aWR0aD0iMTA0IiB4PSIxNDMiIHk9IjY1MS41OTM4Ii8+PHRleHQgZmlsbD0iIzAwMDAwMCIgZm9udC1mYW1pbHk9InNhbnMtc2VyaWYiIGZvbnQtc2l6ZT0iMTIiIGxlbmd0aEFkanVzdD0ic3BhY2luZyIgdGV4dExlbmd0aD0iODQiIHg9IjE1MyIgeT0iNjcyLjkzNzUiPiYjMjYzNTY7JiMyNjAzMjsmIzI1MTA0OyYjMzgyNzE7JiMyMDU0MDsmIzI2MTI2OyYjMzI0NTQ7PC90ZXh0PjxyZWN0IGZpbGw9IiNGMUYxRjEiIGhlaWdodD0iMzIuODQzOCIgcng9IjEyLjUiIHJ5PSIxMi41IiBzdHlsZT0ic3Ryb2tlOiMxODE4MTg7c3Ryb2tlLXdpZHRoOjAuNTsiIHdpZHRoPSI5MiIgeD0iMTQ5IiB5PSI3MDQuNDM3NSIvPjx0ZXh0IGZpbGw9IiMwMDAwMDAiIGZvbnQtZmFtaWx5PSJzYW5zLXNlcmlmIiBmb250LXNpemU9IjEyIiBsZW5ndGhBZGp1c3Q9InNwYWNpbmciIHRleHRMZW5ndGg9IjcyIiB4PSIxNTkiIHk9IjcyNS43ODEzIj4mIzI2MzU2OyYjMjYwMzI7JiMzMTIxNTsmIzIwOTk4OyYjMjYxMjY7JiMzMjQ1NDs8L3RleHQ+PHJlY3QgZmlsbD0iI0YxRjFGMSIgaGVpZ2h0PSIzMi44NDM4IiByeD0iMTIuNSIgcnk9IjEyLjUiIHN0eWxlPSJzdHJva2U6IzE4MTgxODtzdHJva2Utd2lkdGg6MC41OyIgd2lkdGg9IjkyIiB4PSIxNDkiIHk9Ijc1Ny4yODEzIi8+PHRleHQgZmlsbD0iIzAwMDAwMCIgZm9udC1mYW1pbHk9InNhbnMtc2VyaWYiIGZvbnQtc2l6ZT0iMTIiIGxlbmd0aEFkanVzdD0ic3BhY2luZyIgdGV4dExlbmd0aD0iNzIiIHg9IjE1OSIgeT0iNzc4LjYyNSI+JiMyNjM1NjsmIzI2MDMyOyYjMjAyNTA7JiMyMTU5MjsmIzIwMDI3OyYjMzQ5MjA7PC90ZXh0PjxyZWN0IGZpbGw9IiNGMUYxRjEiIGhlaWdodD0iMzIuODQzOCIgcng9IjEyLjUiIHJ5PSIxMi41IiBzdHlsZT0ic3Ryb2tlOiMxODE4MTg7c3Ryb2tlLXdpZHRoOjAuNTsiIHdpZHRoPSIxMTYiIHg9IjEzNyIgeT0iODEwLjEyNSIvPjx0ZXh0IGZpbGw9IiMwMDAwMDAiIGZvbnQtZmFtaWx5PSJzYW5zLXNlcmlmIiBmb250LXNpemU9IjEyIiBsZW5ndGhBZGp1c3Q9InNwYWNpbmciIHRleHRMZW5ndGg9Ijk2IiB4PSIxNDciIHk9IjgzMS40Njg4Ij4mIzI2ODE2OyYjMjY1OTc7JiMxOTk3OTsmIzE5OTY4OyYjMjI3ODg7JiMyOTcwMjsmIzMxNTc0OyYjMzAwNTM7PC90ZXh0PjxyZWN0IGZpbGw9IiNGMUYxRjEiIGhlaWdodD0iMzIuODQzOCIgcng9IjEyLjUiIHJ5PSIxMi41IiBzdHlsZT0ic3Ryb2tlOiMxODE4MTg7c3Ryb2tlLXdpZHRoOjAuNTsiIHdpZHRoPSIxNTIiIHg9IjExOSIgeT0iOTEwLjk2ODgiLz48dGV4dCBmaWxsPSIjMDAwMDAwIiBmb250LWZhbWlseT0ic2Fucy1zZXJpZiIgZm9udC1zaXplPSIxMiIgbGVuZ3RoQWRqdXN0PSJzcGFjaW5nIiB0ZXh0TGVuZ3RoPSIxMzIiIHg9IjEyOSIgeT0iOTMyLjMxMjUiPiYjMjE0NTc7JiMzNjg2NTsmIzIxMzE5OyYjMzI0MjM7JiMyODA0MDsmIzI0Njg3OyYjMjEwNDA7JiMyODA0MDsmIzI0Njg3OyYjMzg0MzE7JiMyMTAxNTs8L3RleHQ+PHJlY3QgZmlsbD0iI0YxRjFGMSIgaGVpZ2h0PSIzMi44NDM4IiByeD0iMTIuNSIgcnk9IjEyLjUiIHN0eWxlPSJzdHJva2U6IzE4MTgxODtzdHJva2Utd2lkdGg6MC41OyIgd2lkdGg9IjE1MiIgeD0iMTE5IiB5PSI5NzguODEyNSIvPjx0ZXh0IGZpbGw9IiMwMDAwMDAiIGZvbnQtZmFtaWx5PSJzYW5zLXNlcmlmIiBmb250LXNpemU9IjEyIiBsZW5ndGhBZGp1c3Q9InNwYWNpbmciIHRleHRMZW5ndGg9IjEzMiIgeD0iMTI5IiB5PSIxMDAwLjE1NjMiPiYjMjAxMDc7JiMyMDIxNDsmIzIwOTk4OyYjMjE0NTc7JiMyMjEyMDsmIzIyNzg4OyYjMjk3MDI7JiMyMTMxOTsmIzMyNDIzOyYjMjgwNDA7JiMyNDY4Nzs8L3RleHQ+PHBvbHlnb24gZmlsbD0iI0YxRjFGMSIgcG9pbnRzPSIxNTMuNSw4NjIuOTY4OCwyMzYuNSw4NjIuOTY4OCwyNDguNSw4NzQuOTY4OCwyMzYuNSw4ODYuOTY4OCwxNTMuNSw4ODYuOTY4OCwxNDEuNSw4NzQuOTY4OCwxNTMuNSw4NjIuOTY4OCIgc3R5bGU9InN0cm9rZTojMTgxODE4O3N0cm9rZS13aWR0aDowLjU7Ii8+PHRleHQgZmlsbD0iIzAwMDAwMCIgZm9udC1mYW1pbHk9InNhbnMtc2VyaWYiIGZvbnQtc2l6ZT0iMTEiIGxlbmd0aEFkanVzdD0ic3BhY2luZyIgdGV4dExlbmd0aD0iMTEiIHg9IjE5OSIgeT0iODk3LjM2NzIiPiYjMjYxNTk7PC90ZXh0Pjx0ZXh0IGZpbGw9IiMwMDAwMDAiIGZvbnQtZmFtaWx5PSJzYW5zLXNlcmlmIiBmb250LXNpemU9IjExIiBsZW5ndGhBZGp1c3Q9InNwYWNpbmciIHRleHRMZW5ndGg9IjgzIiB4PSIxNTMuNSIgeT0iODc5LjQ4MDUiPiYjMjYxNTk7JiMyMTU0MjsmIzM2Nzk4OyYjMjEwNDA7JiMyNjAzMjsmIzMxNTYxOyYjMzI0MjM7PzwvdGV4dD48cG9seWdvbiBmaWxsPSIjRjFGMUYxIiBwb2ludHM9IjE5NSwxMDMxLjY1NjMsMjA3LDEwNDMuNjU2MywxOTUsMTA1NS42NTYzLDE4MywxMDQzLjY1NjMsMTk1LDEwMzEuNjU2MyIgc3R5bGU9InN0cm9rZTojMTgxODE4O3N0cm9rZS13aWR0aDowLjU7Ii8+PHBvbHlnb24gZmlsbD0iI0YxRjFGMSIgcG9pbnRzPSIxNzMsNjA3LjU5MzgsMjE3LDYwNy41OTM4LDIyOSw2MTkuNTkzOCwyMTcsNjMxLjU5MzgsMTczLDYzMS41OTM4LDE2MSw2MTkuNTkzOCwxNzMsNjA3LjU5MzgiIHN0eWxlPSJzdHJva2U6IzE4MTgxODtzdHJva2Utd2lkdGg6MC41OyIvPjx0ZXh0IGZpbGw9IiMwMDAwMDAiIGZvbnQtZmFtaWx5PSJzYW5zLXNlcmlmIiBmb250LXNpemU9IjExIiBsZW5ndGhBZGp1c3Q9InNwYWNpbmciIHRleHRMZW5ndGg9IjQ0IiB4PSIxNzMiIHk9IjYyNC4xMDU1Ij4mIzIxMzE5OyYjMzI0MjM7JiMyMTYwODsmIzI2Mzk5OzwvdGV4dD48cG9seWdvbiBmaWxsPSIjRjFGMUYxIiBwb2ludHM9IjE1My41LDU1OS41OTM4LDIzNi41LDU1OS41OTM4LDI0OC41LDU3MS41OTM4LDIzNi41LDU4My41OTM4LDE1My41LDU4My41OTM4LDE0MS41LDU3MS41OTM4LDE1My41LDU1OS41OTM4IiBzdHlsZT0ic3Ryb2tlOiMxODE4MTg7c3Ryb2tlLXdpZHRoOjAuNTsiLz48dGV4dCBmaWxsPSIjMDAwMDAwIiBmb250LWZhbWlseT0ic2Fucy1zZXJpZiIgZm9udC1zaXplPSIxMSIgbGVuZ3RoQWRqdXN0PSJzcGFjaW5nIiB0ZXh0TGVuZ3RoPSIxMSIgeD0iMTk5IiB5PSI1OTMuOTkyMiI+JiMyNjE1OTs8L3RleHQ+PHRleHQgZmlsbD0iIzAwMDAwMCIgZm9udC1mYW1pbHk9InNhbnMtc2VyaWYiIGZvbnQtc2l6ZT0iMTEiIGxlbmd0aEFkanVzdD0ic3BhY2luZyIgdGV4dExlbmd0aD0iODMiIHg9IjE1My41IiB5PSI1NzYuMTA1NSI+JiMyNjE1OTsmIzIxNTQyOyYjMjAwMjY7JiMyMTMxOTsmIzMyNDIzOyYjMjAxMDc7JiMyMDIxNDs/PC90ZXh0Pjxwb2x5Z29uIGZpbGw9IiNGMUYxRjEiIHBvaW50cz0iMTk1LDEwOTcuNjU2MywyMDcsMTEwOS42NTYzLDE5NSwxMTIxLjY1NjMsMTgzLDExMDkuNjU2MywxOTUsMTA5Ny42NTYzIiBzdHlsZT0ic3Ryb2tlOiMxODE4MTg7c3Ryb2tlLXdpZHRoOjAuNTsiLz48cG9seWdvbiBmaWxsPSIjRjFGMUYxIiBwb2ludHM9IjExNCwxMTI3LjY1NjMsMTI2LDExMzkuNjU2MywxMTQsMTE1MS42NTYzLDEwMiwxMTM5LjY1NjMsMTE0LDExMjcuNjU2MyIgc3R5bGU9InN0cm9rZTojMTgxODE4O3N0cm9rZS13aWR0aDowLjU7Ii8+PHJlY3QgZmlsbD0iI0YxRjFGMSIgaGVpZ2h0PSIzMi44NDM4IiByeD0iMTIuNSIgcnk9IjEyLjUiIHN0eWxlPSJzdHJva2U6IzE4MTgxODtzdHJva2Utd2lkdGg6MC41OyIgd2lkdGg9IjExNiIgeD0iNTYiIHk9IjExNzEuNjU2MyIvPjx0ZXh0IGZpbGw9IiMwMDAwMDAiIGZvbnQtZmFtaWx5PSJzYW5zLXNlcmlmIiBmb250LXNpemU9IjEyIiBsZW5ndGhBZGp1c3Q9InNwYWNpbmciIHRleHRMZW5ndGg9Ijk2IiB4PSI2NiIgeT0iMTE5MyI+JiMyMTQ1NzsmIzM2ODY1OyYjMjI3ODg7JiMyOTcwMjsmIzMyNDY3OyYjMjY1MjQ7JiMyODA0MDsmIzI0Njg3OzwvdGV4dD48ZWxsaXBzZSBjeD0iMTE0IiBjeT0iMTIzNS41IiBmaWxsPSJub25lIiByeD0iMTEiIHJ5PSIxMSIgc3R5bGU9InN0cm9rZTojMjIyMjIyO3N0cm9rZS13aWR0aDoxLjA7Ii8+PGVsbGlwc2UgY3g9IjExNCIgY3k9IjEyMzUuNSIgZmlsbD0iIzIyMjIyMiIgcng9IjYiIHJ5PSI2IiBzdHlsZT0ic3Ryb2tlOiMyMjIyMjI7c3Ryb2tlLXdpZHRoOjEuMDsiLz48bGluZSBzdHlsZT0ic3Ryb2tlOiMxODE4MTg7c3Ryb2tlLXdpZHRoOjEuMDsiIHgxPSIxMTQiIHgyPSIxMTQiIHkxPSIzMCIgeTI9IjUwIi8+PHBvbHlnb24gZmlsbD0iIzE4MTgxOCIgcG9pbnRzPSIxMTAsNDAsMTE0LDUwLDExOCw0MCwxMTQsNDQiIHN0eWxlPSJzdHJva2U6IzE4MTgxODtzdHJva2Utd2lkdGg6MS4wOyIvPjxsaW5lIHN0eWxlPSJzdHJva2U6IzE4MTgxODtzdHJva2Utd2lkdGg6MS4wOyIgeDE9IjExNCIgeDI9IjExNCIgeTE9IjgyLjg0MzgiIHkyPSIxMDIuODQzOCIvPjxwb2x5Z29uIGZpbGw9IiMxODE4MTgiIHBvaW50cz0iMTEwLDkyLjg0MzgsMTE0LDEwMi44NDM4LDExOCw5Mi44NDM4LDExNCw5Ni44NDM4IiBzdHlsZT0ic3Ryb2tlOiMxODE4MTg7c3Ryb2tlLXdpZHRoOjEuMDsiLz48bGluZSBzdHlsZT0ic3Ryb2tlOiMxODE4MTg7c3Ryb2tlLXdpZHRoOjEuMDsiIHgxPSIxMTQiIHgyPSIxMTQiIHkxPSIxMzUuNjg3NSIgeTI9IjE1NS42ODc1Ii8+PHBvbHlnb24gZmlsbD0iIzE4MTgxOCIgcG9pbnRzPSIxMTAsMTQ1LjY4NzUsMTE0LDE1NS42ODc1LDExOCwxNDUuNjg3NSwxMTQsMTQ5LjY4NzUiIHN0eWxlPSJzdHJva2U6IzE4MTgxODtzdHJva2Utd2lkdGg6MS4wOyIvPjxsaW5lIHN0eWxlPSJzdHJva2U6IzE4MTgxODtzdHJva2Utd2lkdGg6MS4wOyIgeDE9IjExNCIgeDI9IjExNCIgeTE9IjE4OC41MzEzIiB5Mj0iMjA4LjUzMTMiLz48cG9seWdvbiBmaWxsPSIjMTgxODE4IiBwb2ludHM9IjExMCwxOTguNTMxMywxMTQsMjA4LjUzMTMsMTE4LDE5OC41MzEzLDExNCwyMDIuNTMxMyIgc3R5bGU9InN0cm9rZTojMTgxODE4O3N0cm9rZS13aWR0aDoxLjA7Ii8+PGxpbmUgc3R5bGU9InN0cm9rZTojMTgxODE4O3N0cm9rZS13aWR0aDoxLjA7IiB4MT0iMTE0IiB4Mj0iMTE0IiB5MT0iMjQxLjM3NSIgeTI9IjI2MS4zNzUiLz48cG9seWdvbiBmaWxsPSIjMTgxODE4IiBwb2ludHM9IjExMCwyNTEuMzc1LDExNCwyNjEuMzc1LDExOCwyNTEuMzc1LDExNCwyNTUuMzc1IiBzdHlsZT0ic3Ryb2tlOiMxODE4MTg7c3Ryb2tlLXdpZHRoOjEuMDsiLz48bGluZSBzdHlsZT0ic3Ryb2tlOiMxODE4MTg7c3Ryb2tlLXdpZHRoOjEuMDsiIHgxPSIxOTUiIHgyPSIxOTUiIHkxPSIzODEuMDYyNSIgeTI9IjQwMS4wNjI1Ii8+PHBvbHlnb24gZmlsbD0iIzE4MTgxOCIgcG9pbnRzPSIxOTEsMzkxLjA2MjUsMTk1LDQwMS4wNjI1LDE5OSwzOTEuMDYyNSwxOTUsMzk1LjA2MjUiIHN0eWxlPSJzdHJva2U6IzE4MTgxODtzdHJva2Utd2lkdGg6MS4wOyIvPjxsaW5lIHN0eWxlPSJzdHJva2U6IzE4MTgxODtzdHJva2Utd2lkdGg6MS4wOyIgeDE9IjE5NSIgeDI9IjE5NSIgeTE9IjQzMy45MDYzIiB5Mj0iNDUzLjkwNjMiLz48cG9seWdvbiBmaWxsPSIjMTgxODE4IiBwb2ludHM9IjE5MSw0NDMuOTA2MywxOTUsNDUzLjkwNjMsMTk5LDQ0My45MDYzLDE5NSw0NDcuOTA2MyIgc3R5bGU9InN0cm9rZTojMTgxODE4O3N0cm9rZS13aWR0aDoxLjA7Ii8+PGxpbmUgc3R5bGU9InN0cm9rZTojMTgxODE4O3N0cm9rZS13aWR0aDoxLjA7IiB4MT0iMTk1IiB4Mj0iMTk1IiB5MT0iNDg2Ljc1IiB5Mj0iNTA2Ljc1Ii8+PHBvbHlnb24gZmlsbD0iIzE4MTgxOCIgcG9pbnRzPSIxOTEsNDk2Ljc1LDE5NSw1MDYuNzUsMTk5LDQ5Ni43NSwxOTUsNTAwLjc1IiBzdHlsZT0ic3Ryb2tlOiMxODE4MTg7c3Ryb2tlLXdpZHRoOjEuMDsiLz48bGluZSBzdHlsZT0ic3Ryb2tlOiMxODE4MTg7c3Ryb2tlLXdpZHRoOjEuMDsiIHgxPSIxOTUiIHgyPSIxOTUiIHkxPSI2ODQuNDM3NSIgeTI9IjcwNC40Mzc1Ii8+PHBvbHlnb24gZmlsbD0iIzE4MTgxOCIgcG9pbnRzPSIxOTEsNjk0LjQzNzUsMTk1LDcwNC40Mzc1LDE5OSw2OTQuNDM3NSwxOTUsNjk4LjQzNzUiIHN0eWxlPSJzdHJva2U6IzE4MTgxODtzdHJva2Utd2lkdGg6MS4wOyIvPjxsaW5lIHN0eWxlPSJzdHJva2U6IzE4MTgxODtzdHJva2Utd2lkdGg6MS4wOyIgeDE9IjE5NSIgeDI9IjE5NSIgeTE9IjczNy4yODEzIiB5Mj0iNzU3LjI4MTMiLz48cG9seWdvbiBmaWxsPSIjMTgxODE4IiBwb2ludHM9IjE5MSw3NDcuMjgxMywxOTUsNzU3LjI4MTMsMTk5LDc0Ny4yODEzLDE5NSw3NTEuMjgxMyIgc3R5bGU9InN0cm9rZTojMTgxODE4O3N0cm9rZS13aWR0aDoxLjA7Ii8+PGxpbmUgc3R5bGU9InN0cm9rZTojMTgxODE4O3N0cm9rZS13aWR0aDoxLjA7IiB4MT0iMTk1IiB4Mj0iMTk1IiB5MT0iNzkwLjEyNSIgeTI9IjgxMC4xMjUiLz48cG9seWdvbiBmaWxsPSIjMTgxODE4IiBwb2ludHM9IjE5MSw4MDAuMTI1LDE5NSw4MTAuMTI1LDE5OSw4MDAuMTI1LDE5NSw4MDQuMTI1IiBzdHlsZT0ic3Ryb2tlOiMxODE4MTg7c3Ryb2tlLXdpZHRoOjEuMDsiLz48bGluZSBzdHlsZT0ic3Ryb2tlOiMxODE4MTg7c3Ryb2tlLXdpZHRoOjEuMDsiIHgxPSIxOTUiIHgyPSIxOTUiIHkxPSI5NDMuODEyNSIgeTI9Ijk3OC44MTI1Ii8+PHBvbHlnb24gZmlsbD0iIzE4MTgxOCIgcG9pbnRzPSIxOTEsOTY4LjgxMjUsMTk1LDk3OC44MTI1LDE5OSw5NjguODEyNSwxOTUsOTcyLjgxMjUiIHN0eWxlPSJzdHJva2U6IzE4MTgxODtzdHJva2Utd2lkdGg6MS4wOyIvPjxsaW5lIHN0eWxlPSJzdHJva2U6IzE4MTgxODtzdHJva2Utd2lkdGg6MS4wOyIgeDE9IjE5NSIgeDI9IjE5NSIgeTE9Ijg4Ni45Njg4IiB5Mj0iOTEwLjk2ODgiLz48cG9seWdvbiBmaWxsPSIjMTgxODE4IiBwb2ludHM9IjE5MSw5MDAuOTY4OCwxOTUsOTEwLjk2ODgsMTk5LDkwMC45Njg4LDE5NSw5MDQuOTY4OCIgc3R5bGU9InN0cm9rZTojMTgxODE4O3N0cm9rZS13aWR0aDoxLjA7Ii8+PGxpbmUgc3R5bGU9InN0cm9rZTojMTgxODE4O3N0cm9rZS13aWR0aDoxLjA7IiB4MT0iMjQ4LjUiIHgyPSIyODEiIHkxPSI4NzQuOTY4OCIgeTI9Ijg3NC45Njg4Ii8+PHBvbHlnb24gZmlsbD0iIzE4MTgxOCIgcG9pbnRzPSIyNzcsOTUxLjMxMjUsMjgxLDk2MS4zMTI1LDI4NSw5NTEuMzEyNSwyODEsOTU1LjMxMjUiIHN0eWxlPSJzdHJva2U6IzE4MTgxODtzdHJva2Utd2lkdGg6MS4wOyIvPjxsaW5lIHN0eWxlPSJzdHJva2U6IzE4MTgxODtzdHJva2Utd2lkdGg6MS4wOyIgeDE9IjI4MSIgeDI9IjI4MSIgeTE9Ijg3NC45Njg4IiB5Mj0iMTA0My42NTYzIi8+PGxpbmUgc3R5bGU9InN0cm9rZTojMTgxODE4O3N0cm9rZS13aWR0aDoxLjA7IiB4MT0iMjgxIiB4Mj0iMjA3IiB5MT0iMTA0My42NTYzIiB5Mj0iMTA0My42NTYzIi8+PHBvbHlnb24gZmlsbD0iIzE4MTgxOCIgcG9pbnRzPSIyMTcsMTAzOS42NTYzLDIwNywxMDQzLjY1NjMsMjE3LDEwNDcuNjU2MywyMTMsMTA0My42NTYzIiBzdHlsZT0ic3Ryb2tlOiMxODE4MTg7c3Ryb2tlLXdpZHRoOjEuMDsiLz48bGluZSBzdHlsZT0ic3Ryb2tlOiMxODE4MTg7c3Ryb2tlLXdpZHRoOjEuMDsiIHgxPSIxOTUiIHgyPSIxOTUiIHkxPSIxMDExLjY1NjMiIHkyPSIxMDMxLjY1NjMiLz48cG9seWdvbiBmaWxsPSIjMTgxODE4IiBwb2ludHM9IjE5MSwxMDIxLjY1NjMsMTk1LDEwMzEuNjU2MywxOTksMTAyMS42NTYzLDE5NSwxMDI1LjY1NjMiIHN0eWxlPSJzdHJva2U6IzE4MTgxODtzdHJva2Utd2lkdGg6MS4wOyIvPjxsaW5lIHN0eWxlPSJzdHJva2U6IzE4MTgxODtzdHJva2Utd2lkdGg6MS4wOyIgeDE9IjE5NSIgeDI9IjE5NSIgeTE9Ijg0Mi45Njg4IiB5Mj0iODYyLjk2ODgiLz48cG9seWdvbiBmaWxsPSIjMTgxODE4IiBwb2ludHM9IjE5MSw4NTIuOTY4OCwxOTUsODYyLjk2ODgsMTk5LDg1Mi45Njg4LDE5NSw4NTYuOTY4OCIgc3R5bGU9InN0cm9rZTojMTgxODE4O3N0cm9rZS13aWR0aDoxLjA7Ii8+PGxpbmUgc3R5bGU9InN0cm9rZTojMTgxODE4O3N0cm9rZS13aWR0aDoxLjA7IiB4MT0iMTk1IiB4Mj0iMTk1IiB5MT0iNjMxLjU5MzgiIHkyPSI2NTEuNTkzOCIvPjxwb2x5Z29uIGZpbGw9IiMxODE4MTgiIHBvaW50cz0iMTkxLDY0MS41OTM4LDE5NSw2NTEuNTkzOCwxOTksNjQxLjU5MzgsMTk1LDY0NS41OTM4IiBzdHlsZT0ic3Ryb2tlOiMxODE4MTg7c3Ryb2tlLXdpZHRoOjEuMDsiLz48bGluZSBzdHlsZT0ic3Ryb2tlOiMxODE4MTg7c3Ryb2tlLXdpZHRoOjEuMDsiIHgxPSIxOTUiIHgyPSIxOTUiIHkxPSIxMDU1LjY1NjMiIHkyPSIxMDY1LjY1NjMiLz48bGluZSBzdHlsZT0ic3Ryb2tlOiMxODE4MTg7c3Ryb2tlLXdpZHRoOjEuMDsiIHgxPSIxOTUiIHgyPSIzMDMiIHkxPSIxMDY1LjY1NjMiIHkyPSIxMDY1LjY1NjMiLz48cG9seWdvbiBmaWxsPSIjMTgxODE4IiBwb2ludHM9IjI5OSw4MzguNjI1LDMwMyw4MjguNjI1LDMwNyw4MzguNjI1LDMwMyw4MzQuNjI1IiBzdHlsZT0ic3Ryb2tlOiMxODE4MTg7c3Ryb2tlLXdpZHRoOjEuMDsiLz48bGluZSBzdHlsZT0ic3Ryb2tlOiMxODE4MTg7c3Ryb2tlLXdpZHRoOjEuMDsiIHgxPSIzMDMiIHgyPSIzMDMiIHkxPSI2MTkuNTkzOCIgeTI9IjEwNjUuNjU2MyIvPjxsaW5lIHN0eWxlPSJzdHJva2U6IzE4MTgxODtzdHJva2Utd2lkdGg6MS4wOyIgeDE9IjMwMyIgeDI9IjIyOSIgeTE9IjYxOS41OTM4IiB5Mj0iNjE5LjU5MzgiLz48cG9seWdvbiBmaWxsPSIjMTgxODE4IiBwb2ludHM9IjIzOSw2MTUuNTkzOCwyMjksNjE5LjU5MzgsMjM5LDYyMy41OTM4LDIzNSw2MTkuNTkzOCIgc3R5bGU9InN0cm9rZTojMTgxODE4O3N0cm9rZS13aWR0aDoxLjA7Ii8+PGxpbmUgc3R5bGU9InN0cm9rZTojMTgxODE4O3N0cm9rZS13aWR0aDoxLjA7IiB4MT0iMTYxIiB4Mj0iOTciIHkxPSI2MTkuNTkzOCIgeTI9IjYxOS41OTM4Ii8+PHBvbHlnb24gZmlsbD0iIzE4MTgxOCIgcG9pbnRzPSI5Myw4MjQuNjI1LDk3LDgzNC42MjUsMTAxLDgyNC42MjUsOTcsODI4LjYyNSIgc3R5bGU9InN0cm9rZTojMTgxODE4O3N0cm9rZS13aWR0aDoxLjA7Ii8+PGxpbmUgc3R5bGU9InN0cm9rZTojMTgxODE4O3N0cm9rZS13aWR0aDoxLjA7IiB4MT0iOTciIHgyPSI5NyIgeTE9IjYxOS41OTM4IiB5Mj0iMTA3Ny42NTYzIi8+PGxpbmUgc3R5bGU9InN0cm9rZTojMTgxODE4O3N0cm9rZS13aWR0aDoxLjA7IiB4MT0iOTciIHgyPSIxOTUiIHkxPSIxMDc3LjY1NjMiIHkyPSIxMDc3LjY1NjMiLz48bGluZSBzdHlsZT0ic3Ryb2tlOiMxODE4MTg7c3Ryb2tlLXdpZHRoOjEuMDsiIHgxPSIxOTUiIHgyPSIxOTUiIHkxPSIxMDc3LjY1NjMiIHkyPSIxMDk3LjY1NjMiLz48cG9seWdvbiBmaWxsPSIjMTgxODE4IiBwb2ludHM9IjE5MSwxMDg3LjY1NjMsMTk1LDEwOTcuNjU2MywxOTksMTA4Ny42NTYzLDE5NSwxMDkxLjY1NjMiIHN0eWxlPSJzdHJva2U6IzE4MTgxODtzdHJva2Utd2lkdGg6MS4wOyIvPjxsaW5lIHN0eWxlPSJzdHJva2U6IzE4MTgxODtzdHJva2Utd2lkdGg6MS4wOyIgeDE9IjE5NSIgeDI9IjE5NSIgeTE9IjU4My41OTM4IiB5Mj0iNjA3LjU5MzgiLz48cG9seWdvbiBmaWxsPSIjMTgxODE4IiBwb2ludHM9IjE5MSw1OTcuNTkzOCwxOTUsNjA3LjU5MzgsMTk5LDU5Ny41OTM4LDE5NSw2MDEuNTkzOCIgc3R5bGU9InN0cm9rZTojMTgxODE4O3N0cm9rZS13aWR0aDoxLjA7Ii8+PGxpbmUgc3R5bGU9InN0cm9rZTojMTgxODE4O3N0cm9rZS13aWR0aDoxLjA7IiB4MT0iMjQ4LjUiIHgyPSIzMTMiIHkxPSI1NzEuNTkzOCIgeTI9IjU3MS41OTM4Ii8+PHBvbHlnb24gZmlsbD0iIzE4MTgxOCIgcG9pbnRzPSIzMDksODE4LjYyNSwzMTMsODI4LjYyNSwzMTcsODE4LjYyNSwzMTMsODIyLjYyNSIgc3R5bGU9InN0cm9rZTojMTgxODE4O3N0cm9rZS13aWR0aDoxLjA7Ii8+PGxpbmUgc3R5bGU9InN0cm9rZTojMTgxODE4O3N0cm9rZS13aWR0aDoxLjA7IiB4MT0iMzEzIiB4Mj0iMzEzIiB5MT0iNTcxLjU5MzgiIHkyPSIxMTA5LjY1NjMiLz48bGluZSBzdHlsZT0ic3Ryb2tlOiMxODE4MTg7c3Ryb2tlLXdpZHRoOjEuMDsiIHgxPSIzMTMiIHgyPSIyMDciIHkxPSIxMTA5LjY1NjMiIHkyPSIxMTA5LjY1NjMiLz48cG9seWdvbiBmaWxsPSIjMTgxODE4IiBwb2ludHM9IjIxNywxMTA1LjY1NjMsMjA3LDExMDkuNjU2MywyMTcsMTExMy42NTYzLDIxMywxMTA5LjY1NjMiIHN0eWxlPSJzdHJva2U6IzE4MTgxODtzdHJva2Utd2lkdGg6MS4wOyIvPjxsaW5lIHN0eWxlPSJzdHJva2U6IzE4MTgxODtzdHJva2Utd2lkdGg6MS4wOyIgeDE9IjE5NSIgeDI9IjE5NSIgeTE9IjUzOS41OTM4IiB5Mj0iNTU5LjU5MzgiLz48cG9seWdvbiBmaWxsPSIjMTgxODE4IiBwb2ludHM9IjE5MSw1NDkuNTkzOCwxOTUsNTU5LjU5MzgsMTk5LDU0OS41OTM4LDE5NSw1NTMuNTkzOCIgc3R5bGU9InN0cm9rZTojMTgxODE4O3N0cm9rZS13aWR0aDoxLjA7Ii8+PGxpbmUgc3R5bGU9InN0cm9rZTojMTgxODE4O3N0cm9rZS13aWR0aDoxLjA7IiB4MT0iNjYiIHgyPSIzMyIgeTE9IjMyNi4yMTg4IiB5Mj0iMzI2LjIxODgiLz48bGluZSBzdHlsZT0ic3Ryb2tlOiMxODE4MTg7c3Ryb2tlLXdpZHRoOjEuMDsiIHgxPSIzMyIgeDI9IjMzIiB5MT0iMzI2LjIxODgiIHkyPSIzNDguMjE4OCIvPjxwb2x5Z29uIGZpbGw9IiMxODE4MTgiIHBvaW50cz0iMjksMzM4LjIxODgsMzMsMzQ4LjIxODgsMzcsMzM4LjIxODgsMzMsMzQyLjIxODgiIHN0eWxlPSJzdHJva2U6IzE4MTgxODtzdHJva2Utd2lkdGg6MS4wOyIvPjxsaW5lIHN0eWxlPSJzdHJva2U6IzE4MTgxODtzdHJva2Utd2lkdGg6MS4wOyIgeDE9IjE2MiIgeDI9IjE5NSIgeTE9IjMyNi4yMTg4IiB5Mj0iMzI2LjIxODgiLz48bGluZSBzdHlsZT0ic3Ryb2tlOiMxODE4MTg7c3Ryb2tlLXdpZHRoOjEuMDsiIHgxPSIxOTUiIHgyPSIxOTUiIHkxPSIzMjYuMjE4OCIgeTI9IjM0OC4yMTg4Ii8+PHBvbHlnb24gZmlsbD0iIzE4MTgxOCIgcG9pbnRzPSIxOTEsMzM4LjIxODgsMTk1LDM0OC4yMTg4LDE5OSwzMzguMjE4OCwxOTUsMzQyLjIxODgiIHN0eWxlPSJzdHJva2U6IzE4MTgxODtzdHJva2Utd2lkdGg6MS4wOyIvPjxsaW5lIHN0eWxlPSJzdHJva2U6IzE4MTgxODtzdHJva2Utd2lkdGg6MS4wOyIgeDE9IjMzIiB4Mj0iMzMiIHkxPSIzODEuMDYyNSIgeTI9IjExMzkuNjU2MyIvPjxsaW5lIHN0eWxlPSJzdHJva2U6IzE4MTgxODtzdHJva2Utd2lkdGg6MS4wOyIgeDE9IjMzIiB4Mj0iMTAyIiB5MT0iMTEzOS42NTYzIiB5Mj0iMTEzOS42NTYzIi8+PHBvbHlnb24gZmlsbD0iIzE4MTgxOCIgcG9pbnRzPSI5MiwxMTM1LjY1NjMsMTAyLDExMzkuNjU2Myw5MiwxMTQzLjY1NjMsOTYsMTEzOS42NTYzIiBzdHlsZT0ic3Ryb2tlOiMxODE4MTg7c3Ryb2tlLXdpZHRoOjEuMDsiLz48bGluZSBzdHlsZT0ic3Ryb2tlOiMxODE4MTg7c3Ryb2tlLXdpZHRoOjEuMDsiIHgxPSIxOTUiIHgyPSIxOTUiIHkxPSIxMTIxLjY1NjMiIHkyPSIxMTM5LjY1NjMiLz48bGluZSBzdHlsZT0ic3Ryb2tlOiMxODE4MTg7c3Ryb2tlLXdpZHRoOjEuMDsiIHgxPSIxOTUiIHgyPSIxMjYiIHkxPSIxMTM5LjY1NjMiIHkyPSIxMTM5LjY1NjMiLz48cG9seWdvbiBmaWxsPSIjMTgxODE4IiBwb2ludHM9IjEzNiwxMTM1LjY1NjMsMTI2LDExMzkuNjU2MywxMzYsMTE0My42NTYzLDEzMiwxMTM5LjY1NjMiIHN0eWxlPSJzdHJva2U6IzE4MTgxODtzdHJva2Utd2lkdGg6MS4wOyIvPjxsaW5lIHN0eWxlPSJzdHJva2U6IzE4MTgxODtzdHJva2Utd2lkdGg6MS4wOyIgeDE9IjExNCIgeDI9IjExNCIgeTE9IjI5NC4yMTg4IiB5Mj0iMzE0LjIxODgiLz48cG9seWdvbiBmaWxsPSIjMTgxODE4IiBwb2ludHM9IjExMCwzMDQuMjE4OCwxMTQsMzE0LjIxODgsMTE4LDMwNC4yMTg4LDExNCwzMDguMjE4OCIgc3R5bGU9InN0cm9rZTojMTgxODE4O3N0cm9rZS13aWR0aDoxLjA7Ii8+PGxpbmUgc3R5bGU9InN0cm9rZTojMTgxODE4O3N0cm9rZS13aWR0aDoxLjA7IiB4MT0iMTE0IiB4Mj0iMTE0IiB5MT0iMTE1MS42NTYzIiB5Mj0iMTE3MS42NTYzIi8+PHBvbHlnb24gZmlsbD0iIzE4MTgxOCIgcG9pbnRzPSIxMTAsMTE2MS42NTYzLDExNCwxMTcxLjY1NjMsMTE4LDExNjEuNjU2MywxMTQsMTE2NS42NTYzIiBzdHlsZT0ic3Ryb2tlOiMxODE4MTg7c3Ryb2tlLXdpZHRoOjEuMDsiLz48bGluZSBzdHlsZT0ic3Ryb2tlOiMxODE4MTg7c3Ryb2tlLXdpZHRoOjEuMDsiIHgxPSIxMTQiIHgyPSIxMTQiIHkxPSIxMjA0LjUiIHkyPSIxMjI0LjUiLz48cG9seWdvbiBmaWxsPSIjMTgxODE4IiBwb2ludHM9IjExMCwxMjE0LjUsMTE0LDEyMjQuNSwxMTgsMTIxNC41LDExNCwxMjE4LjUiIHN0eWxlPSJzdHJva2U6IzE4MTgxODtzdHJva2Utd2lkdGg6MS4wOyIvPjwhLS1TUkM9W1RMRkJSZTlHNER0VmhzMmZsbzJCVmFrSk9aR25qZ2FhdE1CUThBdDFRZ2lNZ3o2US1qZU9NSklNV0Q2VmtHX3VZcnVPS0F4T01QMlBDc1U2RVNER0t3X2xMTEowa3FfSWlMWHRIT3JWVnhhV2hudGlEaDZ0Ykw2MS11NU1YdjFrM0xoVjRDQzY5eDBjbkZaV2Q3SThUci0xeldPOHltUEdJMG9Uem82MzVJVVY4VTBhZTFxeGlvVk1yV0wtV2UySlo4VkFISWFOM3NUakk3aUhENG1vQ3dfb2FiZklnYkFFV3RhYVNJbHVYb3VQWmNNYUw2Z0FiRUZDNkFWVjZmdENlSWpSenJibEJpUzV6Y0VxYTdSR0VuMWpId3FNeXRHd0NpZEJiMHZfUUR5LWZlRzJqa0dCcWhEaW0wS2dUWm5fa2FnSnUzaTBwaU01dDUwV0lDRUVJeW02U3ZVV0R3aW5qOFRJa0hCZ1l1WWFteGpGSmFhR0IwdUZheWdORTZhZjVtZFlrMjhYTVlqc2NqWkhpaWpEeDJKRXQtXzNrLThsTkpfcG9JLUJFdFE3ZW1JSF9ubmJma1J5eGsyV0tZdDQ2Z0x3S293WUwxSGo1ZnJJeTRuLWE1WVp6cXg3ZXdIVEpSc3otbUMwXS0tPjwvZz48L3N2Zz4=;" vertex="1" parent="1">
            <mxGeometry x="670" y="250" width="339" height="1257" as="geometry" />
          </mxCell>
        </UserObject>
      </root>
    </mxGraphModel>
  </diagram>
</mxfile>
